<svg width="17" height="22" viewBox="0 0 17 22" fill="none" xmlns="http://www.w3.org/2000/svg">
<path d="M8.41891 13.8255C10.9474 13.8255 12.997 11.7194 12.997 9.12121C12.997 6.52316 10.9474 4.41699 8.41891 4.41699C5.89052 4.41699 3.84082 6.52316 3.84082 9.12121C3.84082 11.7194 5.89052 13.8255 8.41891 13.8255Z" stroke="#0F0F0F" stroke-miterlimit="10" stroke-linecap="round" stroke-linejoin="round"/>
<path d="M9.33936 1.55476C9.87611 0.576015 11.3285 0.975931 11.3074 2.10201C11.2969 2.95446 12.1915 3.48067 12.8966 3.04918C13.8333 2.47035 14.9068 3.56486 14.3385 4.53308C13.9175 5.25924 14.4332 6.18536 15.2541 6.16431C16.3486 6.14326 16.738 7.63769 15.7803 8.18494C15.0541 8.59533 15.0541 9.65826 15.7803 10.0687C16.738 10.616 16.3486 12.1105 15.2541 12.0894C14.4332 12.0789 13.907 12.9944 14.3385 13.7206C14.8963 14.6888 13.8333 15.7834 12.8966 15.2046C12.1915 14.7731 11.2864 15.2992 11.3074 16.1516C11.3285 17.2777 9.86558 17.6777 9.33936 16.699C8.93943 15.9623 7.89751 15.9623 7.49759 16.699C6.96084 17.6777 5.50846 17.2777 5.52951 16.1516C5.54003 15.2992 4.64547 14.7731 3.94033 15.2046C3.00366 15.7834 1.93016 14.6888 2.49848 13.7206C2.91946 12.9944 2.40376 12.0684 1.58285 12.0894C0.488315 12.1105 0.0989114 10.616 1.05663 10.0687C1.78282 9.65826 1.78282 8.59533 1.05663 8.18494C0.0989114 7.63769 0.488315 6.14326 1.58285 6.16431C2.40376 6.17484 2.92998 5.25924 2.49848 4.53308C1.94068 3.56486 3.00366 2.47035 3.94033 3.04918C4.64547 3.48067 5.55056 2.95446 5.52951 2.10201C5.50846 0.975931 6.97137 0.576015 7.49759 1.55476C7.90804 2.29144 8.93943 2.29144 9.33936 1.55476Z" stroke="#0F0F0F" stroke-miterlimit="10" stroke-linecap="round" stroke-linejoin="round"/>
<path d="M1.95816 17.13L1.40026 18.1301C1.12658 18.6143 1.65288 19.1511 2.14762 18.8774L3.94763 17.8775C4.31605 17.688 4.75815 17.9406 4.76868 18.3617L4.8108 20.4563C4.84238 21.0247 5.57922 21.2037 5.86343 20.7195L6.61081 19.3721" stroke="#0F0F0F" stroke-miterlimit="10" stroke-linecap="round" stroke-linejoin="round"/>
<path d="M14.8892 17.1407L15.4471 18.1303C15.7208 18.6145 15.1944 19.1513 14.6892 18.8776L12.8997 17.8777C12.5313 17.6882 12.0892 17.9408 12.0787 18.3619L12.0365 20.4565C12.005 21.0249 11.2681 21.2039 10.9839 20.7197L10.2471 19.3724" stroke="#0F0F0F" stroke-miterlimit="10" stroke-linecap="round" stroke-linejoin="round"/>
</svg>
