<svg width="14" height="20" viewBox="0 0 14 20" fill="none" xmlns="http://www.w3.org/2000/svg">
<path d="M2.04385 15.3672C2.29809 16.8644 3.54103 18.5028 4.69922 19.2938C5.40543 19.774 6.19639 20 6.9591 20C7.21334 20 7.43933 19.9718 7.66532 19.9153C10.4054 19.322 10.9704 15.9605 10.6879 13.8418C10.5467 12.7684 10.2359 11.6949 9.78396 10.6497C11.8461 10.6497 13.5128 8.98305 13.5128 6.9209V0.706215C13.5128 0.310734 13.202 0 12.8066 0H10.3489V1.12994H12.3828V6.94915C12.3828 8.38983 11.2246 9.54802 9.78396 9.54802H8.0043C6.56362 9.54802 5.40543 8.38983 5.40543 6.94915V1.12994H7.46758V0H4.9817C4.58622 0 4.27549 0.310734 4.27549 0.706215V6.94915C4.27549 9.0113 5.94216 10.678 8.0043 10.678H8.56927C9.07775 11.7514 9.44498 12.9096 9.58622 14.0113C9.81221 15.6497 9.41673 18.4181 7.43933 18.8418C6.76136 18.9831 5.99865 18.8136 5.32069 18.3616C4.41673 17.7401 3.42803 16.4407 3.17379 15.339C4.16249 15.0565 4.92521 14.1525 4.92521 13.0508C4.92521 11.7514 3.85176 10.678 2.55233 10.678C1.25289 10.678 0.179443 11.7514 0.179443 13.0508C0.207692 14.1808 0.998653 15.1412 2.04385 15.3672ZM2.58057 11.8079C3.25854 11.8079 3.82351 12.3729 3.82351 13.0508C3.82351 13.7288 3.25854 14.2938 2.58057 14.2938C1.90261 14.2938 1.33764 13.7288 1.33764 13.0508C1.33764 12.3729 1.90261 11.8079 2.58057 11.8079Z" fill="black"/>
</svg>
