<svg width="685" height="619" viewBox="0 0 685 619" fill="none" xmlns="http://www.w3.org/2000/svg">
<mask id="mask0_1_370" style="mask-type:luminance" maskUnits="userSpaceOnUse" x="0" y="0" width="685" height="619">
<path d="M685 0H0V619H685V0Z" fill="white"/>
</mask>
<g mask="url(#mask0_1_370)">
<path d="M348.366 204.392C351.243 204.392 353.709 206.496 353.709 209.22C353.709 211.943 351.38 214.048 348.366 214.048C345.352 214.048 343.023 211.943 343.023 209.22C343.023 206.496 345.352 204.392 348.366 204.392Z" fill="#696A93"/>
<path d="M348.428 181.734C351.168 181.734 353.497 183.715 353.497 186.315C353.497 188.915 351.305 190.896 348.428 190.896C345.551 190.896 343.359 188.915 343.359 186.315C343.359 183.715 345.551 181.734 348.428 181.734Z" fill="#CB6D2A"/>
<path d="M348.358 159.199C350.961 159.199 353.153 161.18 353.153 163.532C353.153 165.884 350.961 167.865 348.358 167.865C345.755 167.865 343.562 165.884 343.562 163.532C343.562 161.18 345.755 159.199 348.358 159.199Z" fill="#BA8434"/>
<path d="M348.427 136.542C350.893 136.542 352.948 138.399 352.948 140.627C352.948 142.856 350.893 144.713 348.427 144.713C345.961 144.713 343.906 142.856 343.906 140.627C343.906 138.399 345.961 136.542 348.427 136.542Z" fill="#6C8630"/>
<path d="M348.349 114.018C350.678 114.018 352.596 115.751 352.596 117.855C352.596 119.96 350.678 121.693 348.349 121.693C346.02 121.693 344.102 119.96 344.102 117.855C344.102 115.751 346.02 114.018 348.349 114.018Z" fill="#468D8F"/>
<path d="M348.403 91.3633C350.595 91.3633 352.376 92.9727 352.376 94.9535C352.376 96.9343 350.595 98.5437 348.403 98.5437C346.211 98.5437 344.43 96.9343 344.43 94.9535C344.43 92.9727 346.211 91.3633 348.403 91.3633Z" fill="#895474"/>
<path d="M348.332 68.8271C350.387 68.8271 352.031 70.3127 352.031 72.1697C352.031 74.0267 350.387 75.5124 348.332 75.5124C346.277 75.5124 344.633 74.0267 344.633 72.1697C344.633 70.3127 346.277 68.8271 348.332 68.8271Z" fill="#696A93"/>
<path d="M348.394 46.1729C350.312 46.1729 351.819 47.5347 351.819 49.2679C351.819 51.0011 350.312 52.3629 348.394 52.3629C346.476 52.3629 344.969 51.0011 344.969 49.2679C344.969 47.5347 346.476 46.1729 348.394 46.1729Z" fill="#CB6D2A"/>
<path d="M348.346 23.6479C350.127 23.6479 351.497 24.8859 351.497 26.4953C351.497 28.1047 350.127 29.3427 348.346 29.3427C346.565 29.3427 345.195 28.1047 345.195 26.4953C345.195 24.8859 346.565 23.6479 348.346 23.6479Z" fill="#BA8434"/>
<path d="M348.369 0.990234C350.013 0.990234 351.246 2.22823 351.246 3.59003C351.246 4.95183 349.876 6.18983 348.369 6.18983C346.862 6.18983 345.492 4.95183 345.492 3.59003C345.492 2.22823 346.725 0.990234 348.369 0.990234Z" fill="#6C8630"/>
<path d="M266.01 234.594C268.065 232.737 271.49 232.737 273.545 234.594C275.6 236.451 275.6 239.546 273.545 241.403C271.49 243.26 268.065 243.26 266.01 241.403C263.955 239.546 263.955 236.451 266.01 234.594Z" fill="#696A93"/>
<path d="M248.251 218.627C250.169 216.894 253.457 216.894 255.375 218.627C257.293 220.36 257.293 223.331 255.375 225.065C253.457 226.798 250.169 226.798 248.251 225.065C246.333 223.331 246.333 220.36 248.251 218.627Z" fill="#CB6D2A"/>
<path d="M230.602 202.657C232.52 201.048 235.534 200.924 237.315 202.657C239.233 204.39 239.233 207.114 237.315 208.723C235.397 210.457 232.383 210.457 230.602 208.723C228.684 206.99 228.684 204.267 230.602 202.657Z" fill="#BA8434"/>
<path d="M212.902 186.688C214.683 185.078 217.56 185.078 219.341 186.688C221.122 188.297 221.122 190.897 219.341 192.506C217.56 194.116 214.683 194.116 213.039 192.506C211.258 190.897 211.258 188.297 213.039 186.688H212.902Z" fill="#6C8630"/>
<path d="M195.295 170.724C196.939 169.238 199.68 169.238 201.324 170.724C202.968 172.209 202.968 174.685 201.324 176.171C199.68 177.656 196.939 177.656 195.295 176.171C193.651 174.685 193.651 172.209 195.295 170.724Z" fill="#468D8F"/>
<path d="M177.427 154.743C178.934 153.381 181.537 153.381 183.044 154.743C184.551 156.105 184.551 158.457 183.044 159.819C181.537 161.181 178.934 161.181 177.427 159.819C175.92 158.457 175.92 156.105 177.427 154.743Z" fill="#895474"/>
<path d="M159.966 138.772C161.473 137.411 163.802 137.411 165.172 138.772C166.542 140.134 166.542 142.239 165.172 143.477C163.665 144.839 161.336 144.715 159.966 143.477C158.459 142.115 158.459 140.01 159.966 138.772Z" fill="#696A93"/>
<path d="M142.098 122.804C143.468 121.566 145.66 121.566 147.03 122.804C148.4 124.042 148.4 126.023 147.03 127.261C145.66 128.499 143.468 128.499 142.098 127.261C140.728 126.023 140.728 124.042 142.098 122.928V122.804Z" fill="#CB6D2A"/>
<path d="M124.44 106.84C125.673 105.725 127.728 105.725 128.961 106.84C130.194 107.954 130.194 109.811 128.961 110.925C127.728 112.039 125.673 112.039 124.44 110.925C123.207 109.811 123.207 107.954 124.44 106.84Z" fill="#BA8434"/>
<path d="M106.791 90.8717C107.887 89.8813 109.805 89.8813 110.901 90.8717C111.997 91.8621 111.997 93.5953 110.901 94.5857C109.805 95.5761 107.887 95.5761 106.791 94.5857C105.695 93.5953 105.695 91.8621 106.791 90.8717Z" fill="#6C8630"/>
<path d="M89.1423 74.902C90.2383 73.9116 91.8823 73.9116 92.8413 74.902C93.9373 75.8924 93.9373 77.378 92.8413 78.2446C91.8823 79.1112 90.1013 79.1112 89.1423 78.2446C88.0463 77.378 88.0463 75.7686 89.1423 74.902Z" fill="#468D8F"/>
<path d="M71.4614 58.9214C72.4204 58.0548 73.9274 58.0548 74.8864 58.9214C75.8454 59.788 75.8454 61.1498 74.8864 62.0164C73.9274 62.883 72.4204 62.883 71.4614 62.0164C70.5024 61.1498 70.5024 59.788 71.4614 58.9214Z" fill="#895474"/>
<path d="M53.7024 42.957C54.5244 42.2142 55.8944 42.2142 56.7164 42.957C57.5384 43.6998 57.5384 44.9378 56.7164 45.6806C55.8944 46.4234 54.5244 46.4234 53.7024 45.6806C52.8804 44.9378 52.8804 43.6998 53.7024 42.957Z" fill="#696A93"/>
<path d="M36.045 26.9892C36.73 26.3702 37.963 26.3702 38.648 26.9892C39.333 27.6082 39.333 28.7223 38.648 29.3413C37.963 29.9603 36.73 29.9603 36.045 29.3413C35.36 28.7223 35.36 27.6082 36.045 26.9892Z" fill="#CB6D2A"/>
<path d="M18.4482 11.011C18.4482 11.011 20.0922 10.392 20.6402 11.011C21.3252 11.5062 21.3252 12.4966 20.6402 12.9918C20.0922 13.487 18.9962 13.487 18.4482 12.9918C17.7632 12.3728 17.9002 11.5062 18.4482 11.011Z" fill="#BA8434"/>
<path d="M231.289 308.755C231.289 306.155 233.618 303.927 236.632 303.927C239.646 303.927 241.975 306.031 241.975 308.755C241.975 311.479 239.646 313.583 236.769 313.583C233.892 313.583 231.426 311.479 231.426 308.755H231.289Z" fill="#696A93"/>
<path d="M206.242 308.749C206.242 306.149 208.434 304.168 211.311 304.168C214.188 304.168 216.38 306.149 216.38 308.749C216.38 311.348 214.051 313.329 211.311 313.329C208.571 313.329 206.242 311.225 206.242 308.749Z" fill="#CB6D2A"/>
<path d="M181.312 308.757C181.312 306.405 183.504 304.424 186.107 304.424C188.71 304.424 190.902 306.405 190.902 308.757C190.902 311.109 188.71 313.09 186.107 313.09C183.504 313.09 181.312 311.109 181.312 308.757Z" fill="#BA8434"/>
<path d="M156.258 308.749C156.258 306.521 158.313 304.664 160.779 304.664C163.245 304.664 165.3 306.521 165.3 308.749C165.3 310.978 163.245 312.835 160.779 312.835C158.313 312.835 156.258 310.978 156.258 308.749Z" fill="#6C8630"/>
<path d="M131.32 308.755C131.32 306.65 133.238 304.917 135.567 304.917C137.896 304.917 139.814 306.65 139.814 308.755C139.814 310.859 137.896 312.593 135.567 312.593C133.238 312.593 131.32 310.859 131.32 308.755Z" fill="#468D8F"/>
<path d="M106.172 308.75C106.172 306.77 107.953 305.16 110.145 305.16C112.337 305.16 114.118 306.77 114.118 308.75C114.118 310.731 112.337 312.341 110.145 312.341C107.953 312.341 106.172 310.731 106.172 308.75Z" fill="#895474"/>
<path d="M81.2267 308.757C81.2267 306.9 82.8707 305.414 84.9257 305.414C86.9807 305.414 88.6247 306.9 88.6247 308.757C88.6247 310.614 86.9807 312.099 84.9257 312.099C82.8707 312.099 81.2267 310.614 81.2267 308.757Z" fill="#696A93"/>
<path d="M56.2891 308.749C56.2891 307.016 57.7961 305.654 59.7141 305.654C61.6321 305.654 63.1391 307.016 63.1391 308.749C63.1391 310.482 61.6321 311.844 59.7141 311.844C57.7961 311.844 56.2891 310.482 56.2891 308.749Z" fill="#CB6D2A"/>
<path d="M31.25 308.755C31.25 307.145 32.62 305.907 34.401 305.907C36.182 305.907 37.552 307.145 37.552 308.755C37.552 310.364 36.182 311.602 34.401 311.602C32.62 311.602 31.25 310.364 31.25 308.755Z" fill="#BA8434"/>
<path d="M6.30481 308.751C6.30481 307.266 7.67481 306.151 9.18181 306.151C10.8258 306.151 12.0588 307.266 12.0588 308.751C12.0588 310.237 10.6888 311.351 9.18181 311.351C7.67481 311.351 6.30481 310.113 6.30481 308.751Z" fill="#6C8630"/>
<path d="M264.721 383.277C262.666 381.42 262.666 378.449 264.721 376.468C266.776 374.611 270.201 374.611 272.256 376.468C274.311 378.325 274.311 381.42 272.256 383.277C270.201 385.134 266.776 385.134 264.721 383.277Z" fill="#696A93"/>
<path d="M247.139 399.242C245.221 397.509 245.084 394.538 247.139 392.805C249.194 391.072 252.345 391.072 254.263 392.805C256.181 394.538 256.181 397.509 254.263 399.242C252.345 400.976 249.057 400.976 247.139 399.242Z" fill="#CB6D2A"/>
<path d="M229.372 415.218C227.591 413.484 227.454 410.885 229.372 409.151C231.29 407.418 234.304 407.418 236.085 409.151C238.003 410.885 238.003 413.608 236.085 415.218C234.167 416.951 231.153 416.951 229.372 415.218Z" fill="#BA8434"/>
<path d="M211.648 431.306C209.867 429.696 209.867 427.097 211.648 425.487C213.429 423.878 216.306 423.878 218.087 425.487C219.868 427.097 219.868 429.696 218.087 431.306C216.306 432.915 213.429 432.915 211.648 431.306Z" fill="#6C8630"/>
<path d="M193.999 447.284C192.355 445.798 192.355 443.322 193.999 441.837C195.643 440.351 198.383 440.351 200.027 441.837C201.671 443.322 201.671 445.798 200.027 447.284C198.383 448.77 195.643 448.77 193.999 447.284Z" fill="#468D8F"/>
<path d="M176.326 463.25C174.819 461.889 174.819 459.536 176.326 458.175C177.833 456.813 180.436 456.813 181.943 458.175C183.45 459.536 183.45 461.889 181.943 463.25C180.436 464.612 177.833 464.612 176.326 463.25Z" fill="#895474"/>
<path d="M158.685 479.216C157.178 477.854 157.178 475.75 158.685 474.512C160.055 473.274 162.521 473.274 163.891 474.512C165.398 475.873 165.398 477.978 163.891 479.216C162.384 480.454 160.055 480.578 158.685 479.216Z" fill="#696A93"/>
<path d="M141.028 495.191C139.658 493.953 139.658 491.972 141.028 490.734C142.398 489.496 144.59 489.496 145.96 490.734C147.33 491.972 147.33 493.953 145.96 495.191C144.59 496.429 142.398 496.429 141.165 495.191H141.028Z" fill="#CB6D2A"/>
<path d="M123.261 511.159C122.028 510.045 122.028 508.188 123.261 507.074C124.494 505.96 126.412 505.96 127.782 507.074C129.015 508.188 129.015 510.045 127.782 511.159C126.549 512.274 124.494 512.274 123.261 511.159Z" fill="#BA8434"/>
<path d="M105.611 527.136C104.515 526.146 104.515 524.413 105.611 523.422C106.707 522.432 108.625 522.432 109.721 523.422C110.817 524.413 110.817 526.146 109.721 527.136C108.625 528.127 106.707 528.127 105.611 527.136Z" fill="#6C8630"/>
<path d="M87.9236 543.099C86.8276 542.109 86.8276 540.623 87.9236 539.756C88.8826 538.766 90.6636 538.766 91.6226 539.756C92.7186 540.623 92.7186 542.232 91.6226 543.099C90.5266 544.089 88.8826 544.089 87.9236 543.099Z" fill="#468D8F"/>
<path d="M70.2896 559.067C69.3306 558.201 69.3306 556.839 70.2896 555.972C71.2486 555.106 72.7556 555.106 73.7146 555.972C74.6736 556.839 74.6736 558.201 73.7146 559.067C72.7556 559.934 71.2486 559.934 70.2896 559.067Z" fill="#895474"/>
<path d="M52.6556 575.045C51.8336 574.303 51.8336 573.065 52.6556 572.322C53.4776 571.579 54.8476 571.579 55.6696 572.322C56.4916 573.065 56.4916 574.303 55.6696 575.045C54.8476 575.788 53.4776 575.788 52.6556 575.045Z" fill="#696A93"/>
<path d="M34.9179 591.012C34.2329 590.393 34.0959 589.279 34.9179 588.66C35.6029 588.041 36.8359 588.041 37.5209 588.66C38.2059 589.279 38.2059 590.393 37.5209 591.012C36.8359 591.631 35.6029 591.631 34.9179 591.012Z" fill="#CB6D2A"/>
<path d="M17.3124 606.985C17.3124 606.985 16.6274 605.499 17.3124 605.004C17.9974 604.385 18.9564 604.385 19.6414 605.004C20.1894 605.499 20.1894 606.49 19.6414 606.985C19.0934 607.604 17.9974 607.604 17.4494 606.985H17.3124Z" fill="#BA8434"/>
<path d="M346.78 414.608C343.903 414.608 341.438 412.503 341.438 409.779C341.438 407.18 343.766 404.951 346.78 404.951C349.657 404.951 352.124 407.056 352.124 409.779C352.124 412.503 349.794 414.608 346.78 414.608Z" fill="#696A93"/>
<path d="M346.819 437.263C344.079 437.263 341.75 435.282 341.75 432.682C341.75 430.206 344.079 428.102 346.819 428.102C349.559 428.102 351.888 430.206 351.888 432.682C351.888 435.158 349.559 437.263 346.819 437.263Z" fill="#CB6D2A"/>
<path d="M346.772 459.799C344.169 459.799 341.977 457.942 341.977 455.466C341.977 453.114 344.169 451.133 346.772 451.133C349.375 451.133 351.567 452.99 351.567 455.466C351.567 457.942 349.375 459.799 346.772 459.799Z" fill="#BA8434"/>
<path d="M346.802 482.445C344.336 482.445 342.281 480.588 342.281 478.36C342.281 476.131 344.336 474.274 346.802 474.274C349.268 474.274 351.323 476.131 351.323 478.36C351.323 480.588 349.268 482.445 346.802 482.445Z" fill="#6C8630"/>
<path d="M346.747 504.98C344.418 504.98 342.5 503.247 342.5 501.142C342.5 499.038 344.418 497.305 346.747 497.305C349.076 497.305 350.994 499.038 350.994 501.142C350.994 503.247 349.076 504.98 346.747 504.98Z" fill="#468D8F"/>
<path d="M346.778 527.636C344.586 527.636 342.805 526.027 342.805 524.046C342.805 522.065 344.586 520.456 346.778 520.456C348.97 520.456 350.751 522.065 350.751 524.046C350.751 526.027 348.97 527.636 346.778 527.636Z" fill="#895474"/>
<path d="M346.722 550.173C344.667 550.173 343.023 548.687 343.023 546.83C343.023 544.973 344.667 543.487 346.722 543.487C348.777 543.487 350.421 544.973 350.421 546.83C350.421 548.687 348.777 550.173 346.722 550.173Z" fill="#696A93"/>
<path d="M346.878 572.818C344.96 572.818 343.453 571.456 343.453 569.723C343.453 567.99 344.96 566.628 346.878 566.628C348.796 566.628 350.303 567.99 350.303 569.723C350.303 571.456 348.796 572.818 346.878 572.818Z" fill="#CB6D2A"/>
<path d="M346.94 595.354C345.159 595.354 343.789 594.116 343.789 592.507C343.789 590.897 345.159 589.659 346.94 589.659C348.721 589.659 350.091 590.897 350.091 592.507C350.091 594.116 348.721 595.354 346.94 595.354Z" fill="#BA8434"/>
<path d="M346.783 618.01C345.139 618.01 343.906 616.896 343.906 615.41C343.906 613.925 345.276 612.811 346.783 612.811C348.29 612.811 349.66 614.049 349.66 615.41C349.66 616.896 348.29 618.01 346.783 618.01Z" fill="#6C8630"/>
<path d="M429.381 384.402C427.326 386.259 424.038 386.259 421.846 384.402C419.791 382.545 419.791 379.45 421.846 377.593C423.901 375.736 427.326 375.736 429.381 377.593C431.436 379.45 431.436 382.545 429.381 384.402Z" fill="#696A93"/>
<path d="M447.086 400.367C445.168 402.224 441.88 402.224 439.962 400.367C438.044 398.634 438.044 395.663 439.962 393.93C441.88 392.197 445.168 392.197 447.086 393.93C449.004 395.663 449.004 398.634 447.086 400.367Z" fill="#CB6D2A"/>
<path d="M464.745 416.342C462.964 417.951 459.95 418.075 458.032 416.342C456.114 414.609 456.114 411.885 458.032 410.275C459.95 408.542 462.964 408.542 464.745 410.275C466.663 412.009 466.663 414.732 464.745 416.342Z" fill="#BA8434"/>
<path d="M482.462 432.307C480.681 433.917 477.804 433.917 476.023 432.307C474.242 430.698 474.242 428.098 476.023 426.612C477.804 425.003 480.681 425.003 482.462 426.612C484.243 428.222 484.243 430.821 482.462 432.431V432.307Z" fill="#6C8630"/>
<path d="M500.034 448.288C498.39 449.774 495.65 449.774 494.006 448.288C492.362 446.802 492.362 444.326 494.006 442.841C495.65 441.355 498.39 441.355 500.034 442.841C501.678 444.326 501.678 446.802 500.034 448.288Z" fill="#468D8F"/>
<path d="M517.724 464.254C516.217 465.616 513.614 465.616 512.107 464.254C510.6 462.893 510.6 460.54 512.107 459.179C513.614 457.817 516.217 457.817 517.724 459.179C519.231 460.54 519.231 462.893 517.724 464.254Z" fill="#895474"/>
<path d="M535.398 480.228C534.028 481.59 531.562 481.59 530.192 480.228C528.822 478.866 528.822 476.761 530.192 475.523C531.562 474.162 534.028 474.162 535.398 475.523C536.768 476.885 536.768 478.99 535.398 480.228Z" fill="#696A93"/>
<path d="M553.108 496.199C551.738 497.437 549.546 497.437 548.176 496.199C546.806 494.961 546.806 492.98 548.176 491.742C549.546 490.504 551.738 490.504 553.108 491.742C554.478 492.98 554.478 494.961 553.108 496.075V496.199Z" fill="#CB6D2A"/>
<path d="M570.782 512.163C569.549 513.277 567.494 513.277 566.261 512.163C565.028 511.049 565.028 509.192 566.261 508.078C567.494 506.964 569.549 506.964 570.782 508.078C572.015 509.192 572.015 511.049 570.782 512.163Z" fill="#BA8434"/>
<path d="M588.471 528.128C587.375 529.118 585.457 529.242 584.361 528.128C583.265 527.137 583.265 525.404 584.361 524.414C585.457 523.423 587.375 523.423 588.471 524.414C589.567 525.404 589.567 527.137 588.471 528.128Z" fill="#6C8630"/>
<path d="M606.088 544.103C604.992 545.093 603.348 545.093 602.389 544.103C601.293 543.113 601.43 541.627 602.389 540.76C603.485 539.77 605.129 539.77 606.088 540.76C607.184 541.751 607.184 543.236 606.088 544.103Z" fill="#468D8F"/>
<path d="M623.754 560.071C622.795 560.938 621.288 560.938 620.329 560.071C619.37 559.205 619.37 557.843 620.329 556.976C621.288 556.11 622.795 556.11 623.754 556.976C624.713 557.843 624.713 559.205 623.754 560.071Z" fill="#895474"/>
<path d="M641.42 576.049C640.598 576.792 639.228 576.792 638.406 576.049C637.584 575.306 637.584 574.068 638.406 573.326C639.228 572.583 640.598 572.583 641.42 573.326C642.242 574.068 642.242 575.306 641.42 576.049Z" fill="#696A93"/>
<path d="M659.117 592.015C658.432 592.634 657.199 592.757 656.514 592.015C655.829 591.396 655.829 590.281 656.514 589.662C657.199 589.043 658.432 589.043 659.117 589.662C659.802 590.281 659.802 591.396 659.117 592.015Z" fill="#CB6D2A"/>
<path d="M676.79 607.984C676.79 607.984 675.146 608.603 674.598 607.984C674.051 607.365 674.051 606.498 674.598 605.879C675.146 605.384 676.242 605.384 676.79 605.879C677.475 606.374 677.338 607.365 676.79 607.86V607.984Z" fill="#BA8434"/>
<path d="M464.092 310.242C464.092 312.842 461.763 314.947 458.749 315.07C455.872 315.07 453.406 312.966 453.406 310.242C453.406 307.642 455.735 305.414 458.749 305.414C461.763 305.414 464.092 307.519 464.092 310.242Z" fill="#696A93"/>
<path d="M489.005 310.235C489.005 312.835 486.813 314.815 483.936 314.815C481.196 314.815 478.867 312.835 478.867 310.235C478.867 307.635 481.196 305.654 483.936 305.654C486.676 305.654 489.005 307.759 489.005 310.235Z" fill="#CB6D2A"/>
<path d="M513.926 310.24C513.926 312.592 511.871 314.573 509.131 314.573C506.528 314.573 504.336 312.592 504.336 310.24C504.336 307.888 506.391 305.907 508.994 305.907C511.597 305.907 513.789 307.888 513.789 310.24H513.926Z" fill="#BA8434"/>
<path d="M539.065 310.237C539.065 312.465 537.01 314.322 534.544 314.322C532.078 314.322 530.023 312.465 530.023 310.237C530.023 308.008 532.078 306.151 534.544 306.151C537.01 306.151 539.065 308.008 539.065 310.237Z" fill="#6C8630"/>
<path d="M563.994 310.242C563.994 312.347 562.076 314.08 559.747 314.08C557.418 314.08 555.5 312.347 555.5 310.242C555.5 308.137 557.418 306.404 559.747 306.404C562.076 306.404 563.994 308.137 563.994 310.242Z" fill="#468D8F"/>
<path d="M589.024 310.235C589.024 312.216 587.243 313.825 585.051 313.825C582.859 313.825 581.078 312.216 581.078 310.235C581.078 308.254 582.859 306.645 585.051 306.645C587.243 306.645 589.024 308.254 589.024 310.235Z" fill="#895474"/>
<path d="M613.945 310.244C613.945 312.101 612.301 313.587 610.246 313.587C608.191 313.587 606.547 312.101 606.547 310.244C606.547 308.387 608.191 306.901 610.246 306.901C612.301 306.901 613.945 308.387 613.945 310.244Z" fill="#696A93"/>
<path d="M638.975 310.237C638.975 311.97 637.468 313.455 635.55 313.332C633.632 313.332 632.125 311.97 632.125 310.237C632.125 308.503 633.632 307.142 635.55 307.142C637.468 307.142 638.975 308.503 638.975 310.237Z" fill="#CB6D2A"/>
<path d="M663.904 310.244C663.904 311.853 662.534 313.091 660.753 313.091C658.972 313.091 657.602 311.853 657.602 310.244C657.602 308.634 658.972 307.396 660.753 307.396C662.397 307.396 663.904 308.634 663.904 310.244Z" fill="#BA8434"/>
<path d="M689.043 310.238C689.043 311.724 687.673 312.838 686.166 312.838C684.659 312.838 683.289 311.6 683.289 310.238C683.289 308.753 684.659 307.639 686.166 307.639C687.81 307.639 689.043 308.877 689.043 310.238Z" fill="#6C8630"/>
<path d="M430.443 235.704C432.498 237.561 432.498 240.532 430.443 242.513C428.388 244.37 424.963 244.37 422.908 242.513C420.853 240.656 420.853 237.561 422.908 235.704C424.963 233.847 428.251 233.847 430.443 235.704Z" fill="#696A93"/>
<path d="M448.141 219.739C450.196 221.473 450.196 224.444 448.141 226.177C446.223 227.91 442.935 227.91 441.017 226.177C439.099 224.444 439.099 221.473 441.017 219.739C442.935 218.006 446.223 218.006 448.141 219.739Z" fill="#CB6D2A"/>
<path d="M465.808 203.771C467.726 205.38 467.726 208.104 465.808 209.837C463.89 211.57 460.876 211.57 459.095 209.837C457.177 208.104 457.177 205.38 459.095 203.771C461.013 202.037 464.027 202.037 465.808 203.771Z" fill="#BA8434"/>
<path d="M483.54 187.669C485.321 189.278 485.321 191.878 483.54 193.488C481.759 195.097 478.882 195.097 477.101 193.488C475.32 191.878 475.32 189.278 477.101 187.669C478.882 186.06 481.759 186.06 483.54 187.669Z" fill="#6C8630"/>
<path d="M501.081 171.821C502.725 173.307 502.725 175.659 501.081 177.268C499.437 178.754 496.697 178.754 495.053 177.268C493.409 175.783 493.409 173.431 495.053 171.821C496.697 170.336 499.437 170.336 501.081 171.821Z" fill="#468D8F"/>
<path d="M518.786 155.733C520.293 157.095 520.293 159.447 518.786 160.809C517.279 162.295 514.676 162.171 513.169 160.809C511.662 159.447 511.662 157.219 513.169 155.733C514.676 154.248 517.279 154.372 518.786 155.733Z" fill="#895474"/>
<path d="M536.446 139.768C537.953 141.006 537.953 143.235 536.446 144.473C535.076 145.711 532.61 145.711 531.24 144.473C529.733 143.235 529.733 141.006 531.24 139.768C532.747 138.53 535.076 138.53 536.446 139.768Z" fill="#696A93"/>
<path d="M554.178 123.798C555.548 125.036 555.548 127.016 554.178 128.254C552.808 129.492 550.616 129.492 549.246 128.254C547.876 127.016 547.876 125.036 549.246 123.798C550.616 122.56 552.808 122.56 554.041 123.798H554.178Z" fill="#CB6D2A"/>
<path d="M571.852 107.818C573.085 108.932 573.085 110.789 571.852 111.903C570.619 113.018 568.564 113.018 567.331 111.903C566.098 110.789 566.098 109.056 567.331 107.818C568.564 106.704 570.619 106.704 571.715 107.818H571.852Z" fill="#BA8434"/>
<path d="M589.541 91.8541C590.637 92.8445 590.637 94.5777 589.541 95.5681C588.445 96.5585 586.527 96.5585 585.431 95.5681C584.335 94.5777 584.335 92.8445 585.431 91.8541C586.527 90.8637 588.445 90.8637 589.541 91.8541Z" fill="#6C8630"/>
<path d="M607.201 75.8807C608.297 76.8711 608.297 78.3567 607.201 79.3471C606.242 80.3375 604.461 80.2137 603.502 79.3471C602.406 78.3567 602.406 76.8711 603.502 76.0045C604.598 75.0141 606.242 75.0141 607.201 76.0045V75.8807Z" fill="#468D8F"/>
<path d="M624.816 59.9156C625.775 60.7822 625.775 62.144 624.816 63.0106C623.857 63.8772 622.35 63.8772 621.391 63.0106C620.432 62.144 620.432 60.7822 621.391 59.9156C622.35 59.049 623.857 59.049 624.679 59.9156H624.816Z" fill="#895474"/>
<path d="M642.513 43.9477C643.335 44.6905 643.335 45.9285 642.513 46.6713C641.691 47.4141 640.321 47.4141 639.499 46.6713C638.677 45.9285 638.677 44.6905 639.499 43.9477C640.321 43.2049 641.691 43.2049 642.513 43.9477Z" fill="#696A93"/>
<path d="M660.187 27.9672C660.872 28.5862 661.009 29.7004 660.187 30.3194C659.502 30.9384 658.269 30.9384 657.584 30.3194C656.899 29.7004 656.899 28.5862 657.584 27.9672C658.269 27.3482 659.502 27.3482 660.187 27.9672Z" fill="#CB6D2A"/>
<path d="M677.896 12.0026C677.896 12.0026 678.581 13.4882 677.896 13.9834C677.348 14.4786 676.252 14.4786 675.567 13.9834C675.019 13.4882 675.019 12.4978 675.567 12.0026C676.115 11.3836 677.211 11.5074 677.759 12.0026H677.896Z" fill="#BA8434"/>
<path d="M455.899 347.997C454.803 350.473 451.789 351.711 449.049 350.72C446.309 349.73 444.939 347.006 446.035 344.53C447.131 342.054 450.145 340.816 452.885 341.807C455.625 342.797 456.995 345.521 455.899 347.997Z" fill="#696A93"/>
<path d="M479.238 356.043C478.279 358.395 475.265 359.509 472.662 358.642C470.059 357.776 468.826 355.052 469.785 352.7C470.744 350.348 473.758 349.234 476.224 350.1C478.827 350.967 480.06 353.567 479.101 356.043H479.238Z" fill="#CB6D2A"/>
<path d="M502.528 364.221C501.569 366.449 498.829 367.563 496.363 366.697C493.897 365.83 492.664 363.354 493.623 361.126C494.582 358.897 497.322 357.783 499.788 358.65C502.254 359.516 503.487 361.992 502.528 364.221Z" fill="#BA8434"/>
<path d="M525.937 372.264C524.978 374.369 522.375 375.359 520.046 374.616C517.717 373.75 516.621 371.397 517.443 369.293C518.402 367.188 521.005 366.198 523.334 366.941C525.663 367.683 526.759 370.036 525.937 372.14V372.264Z" fill="#6C8630"/>
<path d="M549.25 380.431C548.428 382.412 545.962 383.402 543.77 382.659C541.578 381.917 540.482 379.688 541.304 377.707C542.126 375.727 544.592 374.736 546.784 375.479C548.976 376.222 550.072 378.45 549.25 380.431Z" fill="#468D8F"/>
<path d="M572.551 388.477C571.729 390.334 569.4 391.2 567.345 390.581C565.29 389.839 564.331 387.858 565.016 385.877C565.838 384.02 568.167 383.153 570.222 383.772C572.277 384.515 573.236 386.62 572.551 388.353V388.477Z" fill="#895474"/>
<path d="M595.817 396.654C595.132 398.388 592.94 399.254 591.022 398.635C589.104 398.016 588.145 396.036 588.967 394.302C589.652 392.569 591.844 391.703 593.762 392.322C595.68 393.064 596.639 394.921 595.954 396.654H595.817Z" fill="#696A93"/>
<path d="M619.208 404.824C618.523 406.434 616.468 407.3 614.824 406.681C613.043 406.062 612.084 404.205 612.769 402.596C613.454 400.987 615.509 400.244 617.29 400.863C619.071 401.482 619.893 403.339 619.208 404.948V404.824Z" fill="#CB6D2A"/>
<path d="M642.54 412.874C641.855 414.36 640.073 415.103 638.429 414.484C636.785 413.865 635.964 412.255 636.649 410.77C637.334 409.284 639.115 408.541 640.759 409.16C642.403 409.779 643.225 411.389 642.54 412.874Z" fill="#BA8434"/>
<path d="M665.839 421.04C665.291 422.402 663.51 423.021 662.003 422.526C660.496 422.03 659.811 420.421 660.359 419.059C660.907 417.698 662.688 417.078 664.058 417.574C665.565 418.069 666.25 419.554 665.702 420.916L665.839 421.04Z" fill="#6C8630"/>
<path d="M689.262 429.081C688.714 430.319 687.207 430.938 685.837 430.443C684.467 429.948 683.782 428.586 684.33 427.348C684.878 426.11 686.385 425.491 687.755 425.986C689.125 426.482 689.81 427.843 689.262 429.081Z" fill="#468D8F"/>
<path d="M454.278 267.53C455.511 270.006 454.278 272.729 451.538 273.843C448.935 274.958 445.784 273.843 444.551 271.367C443.318 269.015 444.551 266.168 447.154 265.054C449.894 263.939 452.908 265.054 454.141 267.53H454.278Z" fill="#696A93"/>
<path d="M477.008 258.369C478.104 260.721 477.008 263.321 474.405 264.435C471.939 265.425 468.925 264.435 467.829 262.083C466.733 259.854 467.829 257.131 470.432 256.14C473.035 255.15 475.912 256.14 477.008 258.493V258.369Z" fill="#CB6D2A"/>
<path d="M499.935 249.21C501.031 251.438 499.935 253.914 497.469 254.905C495.14 255.895 492.263 254.905 491.167 252.676C490.071 250.448 491.167 247.972 493.633 246.982C496.099 245.991 498.839 246.982 499.935 249.21Z" fill="#BA8434"/>
<path d="M522.768 240.05C523.727 242.155 522.768 244.507 520.439 245.373C518.11 246.24 515.507 245.373 514.548 243.269C513.589 241.164 514.548 238.812 516.877 237.945C519.206 237.079 521.809 237.945 522.905 240.05H522.768Z" fill="#6C8630"/>
<path d="M545.696 230.766C546.655 232.747 545.696 234.976 543.504 235.842C541.312 236.709 538.846 235.842 537.887 233.861C536.928 231.881 537.887 229.652 540.079 228.786C542.271 227.919 544.737 228.786 545.696 230.766Z" fill="#468D8F"/>
<path d="M568.537 221.6C569.496 223.457 568.537 225.561 566.482 226.304C564.564 227.047 562.098 226.304 561.276 224.447C560.454 222.59 561.276 220.486 563.331 219.743C565.386 218.876 567.715 219.743 568.537 221.6Z" fill="#895474"/>
<path d="M591.238 212.563C592.06 214.296 591.238 216.277 589.32 217.02C587.402 217.763 585.21 217.02 584.388 215.287C583.566 213.553 584.388 211.696 586.306 210.83C588.224 210.087 590.416 210.83 591.238 212.563Z" fill="#696A93"/>
<path d="M614.122 203.279C614.944 204.889 614.122 206.746 612.341 207.365C610.56 208.108 608.505 207.365 607.82 205.755C606.998 204.146 607.82 202.289 609.601 201.67C611.382 200.927 613.3 201.67 614.122 203.279Z" fill="#CB6D2A"/>
<path d="M636.998 194.119C637.683 195.605 636.998 197.214 635.354 197.957C633.71 198.576 631.929 197.957 631.107 196.472C630.422 194.986 631.107 193.377 632.751 192.634C634.395 192.015 636.176 192.634 636.998 194.119Z" fill="#BA8434"/>
<path d="M659.906 184.958C660.591 186.32 659.906 187.929 658.399 188.425C656.892 189.044 655.248 188.425 654.563 187.063C653.878 185.701 654.563 184.215 656.07 183.596C657.577 182.977 659.221 183.596 659.906 184.834V184.958Z" fill="#6C8630"/>
<path d="M682.833 175.795C683.381 177.033 682.833 178.395 681.463 179.014C680.093 179.509 678.586 179.014 678.038 177.776C677.49 176.538 678.038 175.176 679.408 174.681C680.778 174.186 682.285 174.681 682.97 175.919L682.833 175.795Z" fill="#468D8F"/>
<path d="M390.181 211.575C392.921 212.566 394.291 215.289 393.195 217.765C392.099 220.241 389.085 221.479 386.345 220.489C383.605 219.499 382.235 216.775 383.331 214.299C384.427 211.823 387.441 210.585 390.181 211.575Z" fill="#696A93"/>
<path d="M399.04 190.526C401.643 191.393 403.013 194.116 401.917 196.345C400.958 198.697 397.944 199.811 395.341 198.944C392.738 198.078 391.505 195.354 392.464 193.126C393.423 190.774 396.437 189.659 398.903 190.526H399.04Z" fill="#CB6D2A"/>
<path d="M408.162 169.479C410.628 170.345 411.861 172.821 410.902 175.05C409.943 177.278 407.203 178.392 404.737 177.526C402.271 176.659 401.038 174.183 401.997 171.955C402.956 169.726 405.696 168.612 408.162 169.479Z" fill="#BA8434"/>
<path d="M417.17 148.307C419.499 149.173 420.595 151.525 419.773 153.63C418.814 155.735 416.211 156.725 413.882 155.982C411.553 155.116 410.457 152.763 411.279 150.783C412.238 148.678 414.704 147.564 417.033 148.43L417.17 148.307Z" fill="#6C8630"/>
<path d="M426.058 127.263C428.25 128.006 429.346 130.234 428.524 132.215C427.702 134.196 425.236 135.186 423.044 134.444C420.852 133.701 419.756 131.472 420.578 129.492C421.4 127.511 423.866 126.52 426.058 127.263Z" fill="#468D8F"/>
<path d="M434.957 106.216C437.012 106.959 438.108 109.063 437.286 110.92C436.464 112.777 434.135 113.644 432.08 113.025C430.025 112.282 429.066 110.301 429.751 108.32C430.573 106.463 432.902 105.597 434.82 106.216H434.957Z" fill="#895474"/>
<path d="M444.063 85.1743C445.981 85.7933 446.94 87.7741 446.255 89.5073C445.57 91.2405 443.378 92.1071 441.46 91.3643C439.542 90.7453 438.583 88.7645 439.268 87.0313C440.09 85.2981 442.145 84.4315 444.063 85.1743Z" fill="#696A93"/>
<path d="M453.093 64.0034C454.874 64.6224 455.833 66.4794 455.148 68.0888C454.463 69.6982 452.545 70.441 450.627 69.822C448.846 69.203 448.024 67.346 448.709 65.7366C449.394 64.1272 451.449 63.3844 453.23 64.0034H453.093Z" fill="#CB6D2A"/>
<path d="M462.009 42.9577C463.653 43.5767 464.474 45.1861 463.789 46.6717C463.241 48.1573 461.323 48.9001 459.679 48.2811C458.035 47.6621 457.214 46.0527 457.899 44.5671C458.447 43.0815 460.365 42.3387 462.009 42.9577Z" fill="#BA8434"/>
<path d="M470.949 21.9096C472.456 22.4048 473.278 24.0142 472.593 25.2522C472.045 26.614 470.264 27.3568 468.894 26.7378C467.387 26.2426 466.702 24.6332 467.25 23.3952C467.798 22.0334 469.442 21.2906 470.949 21.9096Z" fill="#6C8630"/>
<path d="M479.903 0.86089C481.273 1.35609 481.958 2.71789 481.41 3.95589C480.862 5.19389 479.355 5.81289 477.985 5.31769C476.615 4.82249 475.93 3.46069 476.478 2.22269C477.026 0.984689 478.533 0.36569 479.903 0.86089Z" fill="#468D8F"/>
<path d="M301.195 213.056C303.798 211.942 306.949 213.056 308.182 215.532C309.415 218.008 308.182 220.732 305.442 221.846C302.839 222.96 299.688 221.846 298.455 219.494C297.222 217.018 298.455 214.171 301.195 213.18V213.056Z" fill="#696A93"/>
<path d="M291.013 192.505C293.616 191.515 296.493 192.505 297.726 194.733C298.822 197.086 297.726 199.685 295.123 200.8C292.657 201.79 289.643 200.8 288.547 198.447C287.451 196.095 288.547 193.495 291.15 192.505H291.013Z" fill="#CB6D2A"/>
<path d="M280.867 171.831C283.196 170.84 286.073 171.831 287.169 173.935C288.265 176.164 287.169 178.64 284.703 179.63C282.237 180.62 279.497 179.63 278.401 177.525C277.305 175.297 278.401 172.821 280.867 171.831Z" fill="#BA8434"/>
<path d="M270.782 151.152C273.111 150.285 275.714 151.152 276.81 153.256C277.769 155.361 276.81 157.713 274.481 158.58C272.152 159.446 269.549 158.58 268.59 156.475C267.631 154.37 268.59 152.018 270.782 151.028V151.152Z" fill="#6C8630"/>
<path d="M260.61 130.483C262.802 129.616 265.268 130.483 266.227 132.464C267.186 134.444 266.227 136.673 264.035 137.539C261.843 138.406 259.377 137.539 258.418 135.559C257.459 133.578 258.418 131.349 260.61 130.483Z" fill="#468D8F"/>
<path d="M250.362 109.938C252.417 109.195 254.746 109.938 255.568 111.795C256.527 113.652 255.568 115.757 253.513 116.499C251.595 117.242 249.129 116.499 248.307 114.642C247.485 112.909 248.307 110.681 250.362 109.938Z" fill="#895474"/>
<path d="M240.173 89.2546C242.091 88.5118 244.283 89.2546 245.105 90.9878C245.927 92.721 245.105 94.7018 243.187 95.4446C241.269 96.1874 239.077 95.4446 238.255 93.7114C237.433 91.9782 238.255 89.9974 240.173 89.2546Z" fill="#696A93"/>
<path d="M230.027 68.584C231.808 67.8412 233.863 68.584 234.548 70.1934C235.37 71.8028 234.548 73.6598 232.767 74.2788C230.986 74.8978 229.068 74.2788 228.246 72.6694C227.561 71.06 228.246 69.3268 230.027 68.584Z" fill="#CB6D2A"/>
<path d="M219.916 47.9082C221.56 47.2892 223.341 47.9082 224.163 49.3938C224.848 50.8794 224.162 52.4888 222.518 53.1078C220.874 53.7268 219.093 53.1078 218.271 51.6222C217.586 50.1366 218.272 48.5272 219.916 47.7844V47.9082Z" fill="#BA8434"/>
<path d="M209.734 27.3572C211.241 26.7382 212.885 27.3572 213.57 28.719C214.255 30.0808 213.57 31.5664 212.063 32.1854C210.556 32.8044 208.912 32.1854 208.227 30.8236C207.542 29.4618 208.227 27.9762 209.734 27.3572Z" fill="#6C8630"/>
<path d="M199.67 6.68049C201.04 6.18529 202.547 6.68048 203.232 7.91848C203.78 9.15648 203.232 10.5183 201.862 11.0135C200.492 11.6325 198.985 11.0135 198.437 9.77549C197.889 8.53749 198.437 7.17569 199.807 6.55669L199.67 6.68049Z" fill="#468D8F"/>
<path d="M239.378 271.001C240.474 268.525 243.488 267.287 246.228 268.277C248.968 269.268 250.338 271.991 249.242 274.467C248.146 276.943 245.132 278.181 242.392 277.191C239.652 276.201 238.282 273.477 239.378 271.001Z" fill="#696A93"/>
<path d="M215.863 262.948C216.822 260.596 219.836 259.358 222.302 260.348C224.905 261.215 226.138 263.939 225.179 266.291C224.22 268.643 221.206 269.757 218.74 268.891C216.137 268.024 214.904 265.3 215.863 262.948Z" fill="#CB6D2A"/>
<path d="M192.677 254.784C193.636 252.555 196.376 251.441 198.842 252.308C201.308 253.174 202.541 255.65 201.582 257.879C200.623 260.107 197.883 261.221 195.417 260.355C192.951 259.488 191.718 257.012 192.677 254.784Z" fill="#BA8434"/>
<path d="M169.335 246.738C170.294 244.633 172.897 243.643 175.226 244.386C177.555 245.252 178.651 247.605 177.829 249.709C176.87 251.814 174.267 252.804 171.938 252.061C169.609 251.195 168.376 248.843 169.335 246.738Z" fill="#6C8630"/>
<path d="M145.937 238.566C146.759 236.585 149.225 235.595 151.417 236.337C153.609 237.08 154.705 239.309 153.883 241.289C153.061 243.27 150.595 244.261 148.403 243.518C146.211 242.775 145.115 240.547 145.937 238.566Z" fill="#468D8F"/>
<path d="M122.583 230.513C123.405 228.656 125.734 227.789 127.652 228.532C129.707 229.275 130.803 231.379 129.981 233.236C129.159 235.093 126.967 235.96 124.775 235.217C122.72 234.474 121.761 232.37 122.446 230.513H122.583Z" fill="#895474"/>
<path d="M99.319 222.347C100.004 220.614 102.196 219.747 104.114 220.366C106.032 220.985 106.991 222.966 106.169 224.699C105.484 226.433 103.292 227.299 101.374 226.68C99.456 226.061 98.497 224.08 99.319 222.347Z" fill="#696A93"/>
<path d="M76.0493 214.293C76.7343 212.684 78.7893 211.817 80.4333 212.436C82.2143 213.055 83.0363 214.912 82.3513 216.521C81.6663 218.131 79.7483 218.874 77.8303 218.378C76.0493 217.759 75.2273 215.902 75.9123 214.417L76.0493 214.293Z" fill="#CB6D2A"/>
<path d="M52.586 206.133C53.271 204.647 55.052 203.905 56.696 204.524C58.34 205.019 59.162 206.752 58.477 208.238C57.792 209.723 56.011 210.466 54.367 209.847C52.723 209.352 51.901 207.619 52.586 206.133Z" fill="#BA8434"/>
<path d="M29.3046 197.957C29.8526 196.595 31.6336 195.976 33.1406 196.471C34.6476 196.966 35.3326 198.576 34.7846 199.938C34.2366 201.299 32.4556 201.918 30.9486 201.423C29.4416 200.928 28.7566 199.319 29.3046 197.957Z" fill="#6C8630"/>
<path d="M6.06418 189.916C6.61218 188.678 8.11918 188.059 9.48918 188.554C10.8592 189.049 11.5442 190.411 10.9962 191.649C10.4482 192.887 8.94117 193.506 7.57117 193.011C6.20117 192.515 5.51618 191.154 6.06418 189.916Z" fill="#468D8F"/>
<path d="M240.869 351.464C239.636 349.112 240.869 346.264 243.609 345.15C246.349 344.036 249.363 345.15 250.596 347.626C251.829 349.978 250.596 352.95 247.856 353.94C245.116 355.054 241.965 353.94 240.869 351.464Z" fill="#696A93"/>
<path d="M218.128 360.621C217.032 358.269 218.128 355.669 220.594 354.555C223.197 353.564 226.074 354.555 227.307 356.907C228.403 359.135 227.307 361.859 224.704 362.849C222.101 363.84 219.224 362.849 218.128 360.497V360.621Z" fill="#CB6D2A"/>
<path d="M195.216 369.79C194.12 367.685 195.216 365.085 197.545 364.095C200.011 363.104 202.751 364.095 203.847 366.323C204.943 368.552 203.847 371.028 201.518 372.018C199.052 373.008 196.312 372.018 195.216 369.79Z" fill="#BA8434"/>
<path d="M172.369 379.067C171.41 376.962 172.369 374.61 174.698 373.619C177.027 372.753 179.63 373.619 180.589 375.724C181.548 377.829 180.589 380.181 178.26 381.047C175.931 381.914 173.328 381.047 172.232 379.067H172.369Z" fill="#6C8630"/>
<path d="M149.465 388.235C148.506 386.255 149.465 384.026 151.657 383.16C153.849 382.293 156.315 383.16 157.274 385.14C158.233 387.121 157.274 389.35 155.082 390.216C152.89 391.083 150.424 390.216 149.465 388.235Z" fill="#468D8F"/>
<path d="M126.706 397.392C125.884 395.658 126.706 393.43 128.761 392.687C130.816 391.821 133.145 392.687 133.967 394.544C134.789 396.277 133.967 398.506 131.912 399.249C129.857 399.991 127.528 399.249 126.706 397.392Z" fill="#895474"/>
<path d="M103.927 406.55C103.105 404.817 103.927 402.836 105.845 402.093C107.626 401.351 109.818 402.093 110.64 403.827C111.462 405.56 110.64 407.541 108.722 408.283C106.804 409.026 104.612 408.283 103.79 406.55H103.927Z" fill="#696A93"/>
<path d="M81.023 415.719C80.201 414.11 81.023 412.253 82.804 411.634C84.585 410.891 86.64 411.634 87.325 413.243C88.147 414.853 87.325 416.586 85.544 417.329C83.763 417.948 81.845 417.329 81.023 415.719Z" fill="#CB6D2A"/>
<path d="M58.1776 424.876C57.4926 423.39 58.1776 421.781 59.8216 421.038C61.4656 420.419 63.2466 421.038 64.0686 422.524C64.7536 424.009 64.0686 425.619 62.4246 426.238C60.9176 426.857 58.9996 426.238 58.3146 424.752L58.1776 424.876Z" fill="#BA8434"/>
<path d="M35.3677 434.032C34.6827 432.67 35.3677 431.185 36.8747 430.566C38.3817 429.947 40.0257 430.566 40.7107 431.927C41.3957 433.289 40.7107 434.775 39.2037 435.394C37.6967 436.013 36.0527 435.394 35.3677 434.032Z" fill="#6C8630"/>
<path d="M12.5147 443.202C11.9667 441.964 12.5147 440.602 13.8847 440.107C15.2547 439.488 16.7617 440.107 17.3097 441.345C17.9947 442.583 17.3097 443.945 15.9397 444.44C14.5697 444.935 13.0627 444.44 12.5147 443.202Z" fill="#468D8F"/>
<path d="M304.9 407.421C302.16 406.43 300.79 403.707 301.886 401.231C302.982 398.755 305.996 397.517 308.736 398.383C311.476 399.374 312.846 402.097 311.75 404.573C310.654 407.049 307.64 408.287 304.9 407.297V407.421Z" fill="#696A93"/>
<path d="M296.06 428.469C293.457 427.602 292.224 424.879 293.183 422.65C294.142 420.298 297.156 419.184 299.759 420.05C302.362 420.917 303.595 423.641 302.636 425.993C301.677 428.345 298.663 429.459 296.06 428.593V428.469Z" fill="#CB6D2A"/>
<path d="M287.003 449.512C284.537 448.645 283.304 446.169 284.263 443.941C285.222 441.713 287.962 440.598 290.428 441.465C292.894 442.332 294.127 444.808 293.168 447.036C292.209 449.264 289.469 450.379 287.003 449.512Z" fill="#BA8434"/>
<path d="M278.046 470.684C275.717 469.817 274.621 467.465 275.443 465.36C276.402 463.256 279.005 462.265 281.334 463.008C283.663 463.875 284.759 466.227 283.937 468.331C282.978 470.436 280.375 471.55 278.183 470.684H278.046Z" fill="#6C8630"/>
<path d="M269.028 491.727C266.836 490.985 265.74 488.756 266.562 486.775C267.384 484.795 269.85 483.804 272.042 484.671C274.234 485.414 275.33 487.642 274.508 489.623C273.686 491.604 271.22 492.594 269.028 491.851V491.727Z" fill="#468D8F"/>
<path d="M260.173 512.77C258.118 512.027 257.159 510.046 257.844 508.189C258.666 506.332 260.995 505.466 263.05 506.085C265.105 506.828 266.064 508.808 265.242 510.665C264.42 512.522 262.091 513.389 260.173 512.77Z" fill="#895474"/>
<path d="M251.053 533.814C249.135 533.195 248.176 531.215 248.861 529.481C249.546 527.748 251.738 526.882 253.656 527.624C255.574 528.243 256.533 530.224 255.848 531.957C255.026 533.691 252.971 534.557 251.053 533.814Z" fill="#696A93"/>
<path d="M242.144 554.988C240.363 554.369 239.404 552.636 240.089 551.027C240.774 549.417 242.692 548.551 244.473 549.293C246.254 549.912 247.076 551.646 246.528 553.379C245.843 554.988 243.788 555.731 242.144 555.112V554.988Z" fill="#CB6D2A"/>
<path d="M233.094 576.037C231.45 575.418 230.628 573.809 231.313 572.323C231.998 570.838 233.779 570.095 235.423 570.714C237.067 571.333 237.889 572.942 237.204 574.428C236.656 575.914 234.738 576.656 233.094 576.037Z" fill="#BA8434"/>
<path d="M224.185 597.076C222.678 596.581 221.856 594.972 222.541 593.61C223.089 592.248 224.87 591.629 226.377 592.124C227.884 592.62 228.569 594.229 228.021 595.591C227.473 596.953 225.692 597.695 224.322 597.076H224.185Z" fill="#6C8630"/>
<path d="M215.235 618.247C213.865 617.752 213.18 616.39 213.728 615.152C214.276 613.914 215.783 613.295 217.153 613.79C218.523 614.285 219.208 615.647 218.66 616.885C218.112 618.123 216.605 618.742 215.235 618.247Z" fill="#468D8F"/>
<path d="M394.067 405.935C391.464 406.925 388.313 405.935 387.08 403.459C385.847 400.983 387.08 398.259 389.82 397.145C392.56 396.155 395.574 397.145 396.807 399.621C398.04 402.097 396.807 404.821 394.067 405.935Z" fill="#696A93"/>
<path d="M404.303 426.489C401.7 427.479 398.823 426.489 397.727 424.137C396.631 421.908 397.727 419.185 400.33 418.194C402.796 417.204 405.81 418.194 406.906 420.546C408.002 422.899 406.906 425.498 404.303 426.489Z" fill="#CB6D2A"/>
<path d="M414.511 447.155C412.182 448.146 409.305 447.155 408.209 445.051C407.113 442.822 408.209 440.346 410.538 439.356C413.004 438.366 415.744 439.356 416.84 441.46C417.936 443.689 416.84 446.165 414.374 447.155H414.511Z" fill="#BA8434"/>
<path d="M424.569 467.833C422.24 468.699 419.637 467.833 418.541 465.728C417.582 463.624 418.541 461.271 420.87 460.405C423.199 459.414 425.802 460.405 426.761 462.509C427.857 464.614 426.761 466.966 424.432 467.957L424.569 467.833Z" fill="#6C8630"/>
<path d="M434.754 488.507C432.699 489.374 430.096 488.507 429.137 486.526C428.178 484.546 429.137 482.317 431.329 481.451C433.521 480.584 435.987 481.451 436.946 483.431C437.905 485.412 436.946 487.641 434.754 488.507Z" fill="#468D8F"/>
<path d="M444.931 509.179C443.013 510.046 440.547 509.179 439.725 507.322C438.766 505.465 439.725 503.36 441.78 502.618C443.698 501.875 446.164 502.618 446.986 504.475C447.945 506.332 446.986 508.436 444.931 509.179Z" fill="#895474"/>
<path d="M454.999 529.736C453.081 530.602 450.889 529.736 450.067 528.003C449.245 526.393 450.067 524.412 451.985 523.67C453.903 522.927 456.095 523.67 456.917 525.403C457.739 527.012 456.917 529.117 454.999 529.736Z" fill="#696A93"/>
<path d="M465.185 550.414C463.404 551.156 461.349 550.414 460.664 548.804C459.842 547.195 460.664 545.338 462.445 544.719C464.226 543.976 466.144 544.719 466.966 546.328C467.651 547.938 466.966 549.795 465.185 550.414Z" fill="#CB6D2A"/>
<path d="M475.311 571.088C473.667 571.707 471.886 571.088 471.201 569.602C470.516 568.117 471.201 566.507 472.845 565.765C474.489 565.146 476.27 565.765 477.092 567.25C477.777 568.612 477.092 570.345 475.448 570.964L475.311 571.088Z" fill="#BA8434"/>
<path d="M485.438 591.752C483.931 592.371 482.287 591.752 481.602 590.391C480.917 589.029 481.602 587.543 483.109 586.924C484.616 586.305 486.26 586.924 486.945 588.286C487.63 589.648 486.945 591.257 485.438 591.752Z" fill="#6C8630"/>
<path d="M495.534 612.436C494.164 612.931 492.657 612.436 491.972 611.198C491.287 609.96 491.972 608.598 493.342 608.103C494.712 607.608 496.219 608.103 496.767 609.341C497.315 610.579 496.767 611.941 495.397 612.56L495.534 612.436Z" fill="#468D8F"/>
<path d="M372.885 206.86C375.762 207.355 377.543 209.955 376.995 212.555C376.447 215.154 373.57 216.764 370.693 216.269C367.816 215.773 366.035 213.174 366.583 210.574C367.268 207.974 370.008 206.365 372.885 206.86Z" fill="#696A93"/>
<path d="M378.047 184.705C380.787 185.2 382.431 187.676 381.883 190.152C381.335 192.628 378.595 194.114 375.855 193.619C373.115 193.124 371.471 190.648 372.019 188.172C372.567 185.696 375.307 184.21 378.047 184.705Z" fill="#CB6D2A"/>
<path d="M383.441 162.669C386.044 163.165 387.688 165.393 387.14 167.745C386.592 170.097 384.126 171.583 381.523 171.088C378.92 170.593 377.276 168.24 377.824 166.012C378.372 163.66 380.975 162.174 383.441 162.669Z" fill="#BA8434"/>
<path d="M388.635 140.634C391.101 141.129 392.608 143.234 392.06 145.462C391.512 147.69 389.183 149.052 386.717 148.557C384.251 148.062 382.744 145.957 383.292 143.729C383.84 141.5 386.169 140.139 388.635 140.634Z" fill="#6C8630"/>
<path d="M393.985 118.473C396.314 118.968 397.684 120.949 397.273 123.053C396.725 125.158 394.533 126.396 392.204 126.025C389.875 125.529 388.505 123.549 388.916 121.444C389.464 119.339 391.656 118.101 393.985 118.473Z" fill="#468D8F"/>
<path d="M399.213 96.4404C401.405 96.8118 402.775 98.7926 402.227 100.773C401.816 102.754 399.624 103.992 397.432 103.497C395.377 103.126 393.87 101.145 394.418 99.2878C394.829 97.307 397.021 96.069 399.076 96.5642L399.213 96.4404Z" fill="#895474"/>
<path d="M404.541 74.3993C406.596 74.7707 407.829 76.5039 407.418 78.3609C407.007 80.2179 404.952 81.3321 403.034 80.9607C400.979 80.5893 399.746 78.7323 400.157 76.9991C400.568 75.1421 402.486 74.0279 404.541 74.3993Z" fill="#696A93"/>
<path d="M409.743 52.2319C411.524 52.6033 412.757 54.2127 412.346 55.9459C411.935 57.6791 410.154 58.6695 408.236 58.2981C406.318 57.9267 405.222 56.3173 405.633 54.5841C406.044 52.8509 407.825 51.8605 409.743 52.2319Z" fill="#CB6D2A"/>
<path d="M414.93 30.1984C416.574 30.5698 417.67 32.0555 417.396 33.6649C416.985 35.2743 415.341 36.2646 413.56 35.8932C411.779 35.5218 410.683 34.0362 411.094 32.4268C411.505 30.9412 413.149 29.827 414.93 30.1984Z" fill="#BA8434"/>
<path d="M420.293 8.04232C421.937 8.41372 422.896 9.77552 422.485 11.1373C422.211 12.4991 420.567 13.4895 419.06 13.1181C417.553 12.8705 416.457 11.3849 416.868 10.0231C417.279 8.53753 418.786 7.67092 420.293 8.04232Z" fill="#6C8630"/>
<path d="M285.273 220.729C287.739 219.243 291.027 219.986 292.534 222.09C294.178 224.319 293.356 227.29 290.89 228.776C288.424 230.261 285.136 229.518 283.629 227.414C281.985 225.185 282.807 222.214 285.273 220.729Z" fill="#696A93"/>
<path d="M271.706 201.788C274.035 200.426 277.186 201.045 278.693 203.15C280.2 205.255 279.515 208.102 277.186 209.464C274.857 210.826 271.706 210.207 270.199 208.102C268.692 205.997 269.377 203.15 271.706 201.788Z" fill="#CB6D2A"/>
<path d="M258.099 182.845C260.291 181.607 263.305 182.102 264.675 184.083C266.045 186.064 265.497 188.787 263.305 190.025C261.113 191.263 258.099 190.768 256.729 188.787C255.222 186.806 255.907 184.083 258.099 182.845Z" fill="#BA8434"/>
<path d="M244.511 163.784C246.566 162.546 249.443 163.165 250.813 165.022C252.183 166.879 251.498 169.479 249.443 170.593C247.388 171.831 244.511 171.336 243.278 169.355C241.908 167.498 242.456 164.898 244.648 163.66L244.511 163.784Z" fill="#6C8630"/>
<path d="M231.055 144.837C232.973 143.723 235.576 144.218 236.946 145.951C238.179 147.685 237.631 150.037 235.713 151.275C233.795 152.389 231.192 151.894 229.822 150.161C228.589 148.304 229.137 145.951 231.055 144.837Z" fill="#468D8F"/>
<path d="M217.43 125.906C219.211 124.792 221.677 125.287 222.91 127.021C224.143 128.63 223.595 130.858 221.677 131.973C219.896 133.087 217.43 132.592 216.197 130.858C214.964 129.249 215.512 127.021 217.43 125.906Z" fill="#895474"/>
<path d="M203.935 106.833C205.716 105.842 207.908 106.337 209.141 107.823C210.237 109.309 209.689 111.413 208.045 112.527C206.401 113.518 204.072 113.023 202.976 111.537C201.88 109.928 202.428 107.823 204.072 106.833H203.935Z" fill="#696A93"/>
<path d="M190.323 87.894C191.967 86.9036 194.022 87.3988 195.118 88.7606C196.077 90.2462 195.666 92.1032 194.022 93.0936C192.378 93.9602 190.323 93.5888 189.227 92.1032C188.268 90.6176 188.679 88.7606 190.186 87.7702L190.323 87.894Z" fill="#CB6D2A"/>
<path d="M176.787 68.9545C178.294 68.0879 180.212 68.4593 181.171 69.8211C182.13 71.1829 181.719 72.9161 180.212 73.7827C178.705 74.6493 176.787 74.2779 175.828 72.9161C174.869 71.5543 175.28 69.8211 176.787 68.9545Z" fill="#BA8434"/>
<path d="M163.171 49.8876C164.541 49.1448 166.322 49.3924 167.281 50.6304C168.103 51.8684 167.692 53.4778 166.459 54.2206C165.089 54.9634 163.308 54.592 162.486 53.4778C161.664 52.2398 161.938 50.6304 163.308 49.8876H163.171Z" fill="#6C8630"/>
<path d="M149.617 30.9499C150.85 30.2071 152.494 30.5785 153.316 31.6927C154.138 32.8069 153.727 34.2925 152.494 35.0353C151.261 35.7781 149.617 35.4067 148.795 34.2925C147.973 33.1783 148.384 31.6927 149.617 30.9499Z" fill="#468D8F"/>
<path d="M136.019 12.003C137.115 11.384 138.622 11.6316 139.307 12.622C139.992 13.6124 139.718 14.9742 138.622 15.5932C137.526 16.2122 136.019 15.9646 135.334 14.9742C134.649 13.9838 134.923 12.622 136.019 12.003Z" fill="#895474"/>
<path d="M233.966 286.597C234.651 283.997 237.391 282.388 240.268 282.883C243.145 283.378 244.926 285.978 244.378 288.578C243.693 291.178 240.953 292.787 238.076 292.292C235.199 291.673 233.418 289.197 233.966 286.597Z" fill="#696A93"/>
<path d="M209.566 281.884C210.114 279.408 212.854 277.799 215.594 278.418C218.334 278.913 219.978 281.389 219.43 283.865C218.882 286.341 216.142 287.827 213.402 287.332C210.662 286.836 209.018 284.36 209.566 281.884Z" fill="#CB6D2A"/>
<path d="M185.051 277.055C185.599 274.703 188.202 273.217 190.668 273.712C193.271 274.208 194.915 276.56 194.367 278.788C193.819 281.14 191.216 282.626 188.75 282.131C186.147 281.636 184.503 279.283 185.051 277.055Z" fill="#BA8434"/>
<path d="M160.659 272.353C161.207 270.124 163.536 268.763 166.002 269.258C168.468 269.753 169.975 271.858 169.427 274.086C168.879 276.314 166.55 277.676 164.084 277.181C161.618 276.686 160.111 274.581 160.659 272.353Z" fill="#6C8630"/>
<path d="M136.241 267.647C136.789 265.542 138.981 264.304 141.31 264.676C143.639 265.171 145.009 267.152 144.461 269.256C144.05 271.361 141.721 272.599 139.392 272.228C137.063 271.732 135.693 269.752 136.104 267.647H136.241Z" fill="#468D8F"/>
<path d="M111.733 262.824C112.144 260.843 114.336 259.605 116.391 260.1C118.583 260.472 119.953 262.453 119.405 264.433C118.994 266.414 116.802 267.528 114.61 267.157C112.555 266.786 111.185 264.805 111.596 262.948L111.733 262.824Z" fill="#895474"/>
<path d="M87.4147 258.118C87.8257 256.261 89.8807 255.147 91.7987 255.518C93.8537 255.89 95.0867 257.747 94.6757 259.48C94.2647 261.337 92.3467 262.451 90.2917 262.08C88.2367 261.585 87.0037 259.851 87.4147 258.118Z" fill="#696A93"/>
<path d="M62.8281 253.288C63.2391 251.679 65.0201 250.565 66.9381 250.936C68.8561 251.307 69.9521 252.917 69.5411 254.65C69.1301 256.259 67.3491 257.374 65.4311 257.002C63.5131 256.631 62.4171 254.898 62.8281 253.288Z" fill="#CB6D2A"/>
<path d="M38.4604 248.588C38.8714 246.978 40.5154 245.988 42.1594 246.359C43.9404 246.731 44.8994 248.216 44.6254 249.826C44.2144 251.311 42.5704 252.425 40.9264 252.054C39.1454 251.806 38.1864 250.197 38.4604 248.711V248.588Z" fill="#BA8434"/>
<path d="M14.1027 243.758C14.3767 242.396 16.0207 241.406 17.5277 241.777C19.0347 242.025 20.1307 243.51 19.7197 244.872C19.4457 246.358 17.8017 247.224 16.2947 246.853C14.6507 246.605 13.6917 245.12 14.1027 243.758Z" fill="#6C8630"/>
<path d="M249.326 365.944C247.819 363.715 248.504 360.744 250.97 359.382C253.436 357.897 256.724 358.639 258.368 360.868C259.875 363.096 259.19 366.067 256.861 367.429C254.395 368.915 251.107 368.172 249.463 365.944H249.326Z" fill="#696A93"/>
<path d="M228.34 378.196C226.833 376.091 227.518 373.244 229.847 371.882C232.176 370.52 235.327 371.139 236.834 373.244C238.341 375.348 237.656 378.196 235.327 379.558C232.998 380.919 229.847 380.3 228.34 378.196Z" fill="#CB6D2A"/>
<path d="M207.411 390.451C206.041 388.47 206.589 385.747 208.781 384.509C210.973 383.147 213.987 383.766 215.357 385.747C216.864 387.728 216.179 390.451 213.987 391.689C211.795 392.927 208.781 392.432 207.411 390.328V390.451Z" fill="#BA8434"/>
<path d="M186.307 402.719C184.937 400.862 185.622 398.262 187.677 397.024C189.732 395.786 192.609 396.405 193.842 398.262C195.212 400.119 194.527 402.719 192.472 403.833C190.417 405.071 187.54 404.576 186.17 402.595L186.307 402.719Z" fill="#6C8630"/>
<path d="M165.385 414.845C164.152 413.112 164.7 410.76 166.618 409.522C168.536 408.407 171.276 408.903 172.509 410.636C173.742 412.369 173.194 414.721 171.276 415.959C169.221 417.073 166.618 416.578 165.385 414.845Z" fill="#468D8F"/>
<path d="M144.401 427.096C143.168 425.486 143.716 423.258 145.634 422.144C147.415 421.03 149.881 421.525 151.114 423.258C152.347 424.867 151.799 427.096 149.881 428.21C148.1 429.324 145.634 428.829 144.401 427.096Z" fill="#895474"/>
<path d="M123.386 439.352C122.29 437.743 122.701 435.762 124.482 434.648C126.126 433.658 128.455 434.153 129.551 435.638C130.647 437.248 130.099 439.229 128.455 440.219C126.674 441.209 124.482 440.714 123.386 439.229V439.352Z" fill="#696A93"/>
<path d="M102.366 451.608C101.27 450.122 101.818 448.265 103.325 447.275C104.969 446.284 107.024 446.78 108.12 448.141C109.079 449.627 108.668 451.484 107.161 452.474C105.517 453.341 103.462 452.97 102.366 451.484V451.608Z" fill="#CB6D2A"/>
<path d="M81.3128 463.866C80.3538 462.504 80.7648 460.771 82.2718 459.905C83.7788 459.038 85.6968 459.409 86.6558 460.771C87.6148 462.133 87.2038 463.866 85.6968 464.733C84.1898 465.599 82.2718 465.228 81.3128 463.866Z" fill="#BA8434"/>
<path d="M60.3921 476.124C59.5701 474.886 59.8441 473.276 61.2141 472.41C62.5841 471.667 64.3651 472.038 65.1871 473.153C66.0091 474.391 65.5981 476 64.3651 476.743C62.9951 477.486 61.2141 477.238 60.3921 476V476.124Z" fill="#6C8630"/>
<path d="M39.2948 488.386C38.4728 487.272 38.8838 485.786 40.1168 485.044C41.3498 484.301 42.9938 484.672 43.8158 485.786C44.6378 486.901 44.2268 488.386 42.9938 489.129C41.7608 489.872 40.1168 489.5 39.2948 488.386Z" fill="#468D8F"/>
<path d="M18.3578 500.639C17.6728 499.648 17.9468 498.287 19.0428 497.668C20.1388 497.049 21.6458 497.296 22.3308 498.287C23.0158 499.277 22.7418 500.639 21.6458 501.258C20.5498 501.877 19.0428 501.629 18.3578 500.639Z" fill="#895474"/>
<path d="M-2.61873 512.893C-3.30373 512.026 -3.02973 510.788 -1.93373 510.293C-0.974731 509.674 0.395269 510.045 0.943269 510.912C1.62827 511.778 1.35427 513.016 0.39527 513.512C-0.56373 514.131 -1.93373 513.759 -2.48173 512.893H-2.61873Z" fill="#696A93"/>
<path d="M322.193 412.124C319.316 411.629 317.535 409.029 318.083 406.429C318.768 403.829 321.508 402.22 324.385 402.715C327.262 403.21 329.043 405.81 328.495 408.41C327.81 411.01 325.07 412.619 322.193 412.124Z" fill="#696A93"/>
<path d="M316.952 434.162C314.212 433.666 312.431 431.19 313.116 428.714C313.664 426.238 316.404 424.629 319.144 425.248C321.884 425.743 323.528 428.219 322.98 430.695C322.432 433.171 319.692 434.657 316.952 434.162Z" fill="#CB6D2A"/>
<path d="M311.726 456.322C309.123 455.827 307.479 453.599 308.027 451.246C308.575 448.894 311.178 447.409 313.644 447.904C316.247 448.399 317.891 450.627 317.343 452.98C316.795 455.332 314.192 456.817 311.589 456.322H311.726Z" fill="#BA8434"/>
<path d="M306.444 478.354C303.978 477.859 302.471 475.754 303.019 473.526C303.567 471.297 305.896 469.935 308.362 470.431C310.828 470.926 312.335 473.154 311.787 475.259C311.239 477.487 308.91 478.849 306.444 478.354Z" fill="#6C8630"/>
<path d="M301.223 500.399C299.031 500.027 297.524 497.922 297.935 495.818C298.483 493.713 300.675 492.475 303.004 492.847C305.333 493.342 306.703 495.323 306.292 497.427C305.744 499.532 303.552 500.77 301.223 500.399Z" fill="#468D8F"/>
<path d="M295.869 522.554C293.677 522.182 292.307 520.202 292.855 518.345C293.266 516.364 295.458 515.126 297.65 515.621C299.705 516.116 301.212 517.973 300.664 519.954C300.253 521.935 298.061 523.173 296.006 522.678L295.869 522.554Z" fill="#895474"/>
<path d="M290.651 544.591C288.596 544.22 287.363 542.487 287.774 540.63C288.185 538.897 290.24 537.659 292.158 538.03C294.213 538.401 295.446 540.135 295.035 541.992C294.624 543.849 292.569 544.963 290.651 544.591Z" fill="#696A93"/>
<path d="M285.507 566.748C283.589 566.377 282.356 564.767 282.904 563.034C283.315 561.301 285.096 560.311 287.014 560.682C288.932 561.054 290.028 562.663 289.617 564.396C289.206 566.129 287.425 567.12 285.507 566.748Z" fill="#CB6D2A"/>
<path d="M280.084 588.789C278.303 588.418 277.207 586.932 277.618 585.323C278.029 583.837 279.673 582.847 281.317 583.095C282.961 583.466 284.057 584.952 283.783 586.561C283.372 588.047 281.728 589.037 280.084 588.789Z" fill="#BA8434"/>
<path d="M274.912 610.821C273.268 610.574 272.309 609.088 272.72 607.726C272.994 606.365 274.638 605.374 276.145 605.746C277.652 606.117 278.748 607.479 278.337 608.841C277.926 610.326 276.419 611.193 274.912 610.821Z" fill="#6C8630"/>
<path d="M409.996 398.267C407.53 399.752 404.242 399.01 402.598 396.781C401.091 394.553 401.776 391.582 404.105 390.096C406.571 388.734 409.859 389.353 411.503 391.582C413.147 393.81 412.325 396.781 409.996 398.267Z" fill="#696A93"/>
<path d="M423.608 417.203C421.279 418.565 418.128 417.946 416.621 415.841C415.114 413.737 415.799 410.889 418.128 409.527C420.457 408.166 423.608 408.785 425.115 410.889C426.622 412.994 425.937 415.841 423.608 417.203Z" fill="#CB6D2A"/>
<path d="M437.11 436.143C434.918 437.381 431.904 436.886 430.534 434.905C429.027 432.925 429.712 430.201 431.904 428.963C434.096 427.601 437.11 428.22 438.48 430.201C439.987 432.182 439.302 434.905 436.973 436.143H437.11Z" fill="#BA8434"/>
<path d="M450.671 455.215C448.616 456.453 445.739 455.834 444.369 453.977C442.999 452.12 443.684 449.52 445.739 448.406C447.794 447.168 450.671 447.787 452.041 449.644C453.411 451.501 452.863 454.101 450.671 455.339V455.215Z" fill="#6C8630"/>
<path d="M464.206 474.159C462.288 475.274 459.685 474.778 458.315 473.045C457.082 471.312 457.63 468.836 459.548 467.722C461.466 466.608 464.069 467.103 465.439 468.836C466.672 470.569 466.124 472.921 464.206 474.159Z" fill="#468D8F"/>
<path d="M477.826 493.099C476.045 494.213 473.579 493.718 472.346 492.108C471.113 490.499 471.661 488.271 473.579 487.156C475.36 486.166 477.826 486.537 479.059 488.271C480.292 489.88 479.744 492.108 477.826 493.223V493.099Z" fill="#895474"/>
<path d="M491.362 512.162C489.718 513.153 487.389 512.781 486.156 511.172C485.06 509.686 485.608 507.582 487.252 506.591C488.896 505.601 491.225 505.972 492.321 507.582C493.417 509.191 492.869 511.172 491.225 512.162H491.362Z" fill="#696A93"/>
<path d="M504.887 531.109C503.243 532.1 501.188 531.728 500.092 530.243C498.996 528.757 499.544 526.9 501.051 525.91C502.695 524.919 504.75 525.414 505.846 526.776C506.805 528.262 506.394 530.119 504.75 531.109H504.887Z" fill="#CB6D2A"/>
<path d="M518.541 550.049C517.034 550.916 515.116 550.544 514.157 549.183C513.198 547.821 513.609 546.088 515.116 545.221C516.623 544.354 518.541 544.726 519.5 546.088C520.459 547.449 520.048 549.183 518.541 550.049Z" fill="#BA8434"/>
<path d="M532.107 569.109C530.737 569.852 528.956 569.604 528.134 568.366C527.312 567.128 527.586 565.519 528.956 564.776C530.326 564.033 532.107 564.405 533.066 565.519C533.888 566.757 533.477 568.366 532.244 569.109H532.107Z" fill="#6C8630"/>
<path d="M545.588 588.047C544.355 588.79 542.711 588.418 541.889 587.304C541.067 586.19 541.478 584.704 542.711 583.962C543.944 583.219 545.588 583.59 546.41 584.704C547.232 585.819 546.821 587.304 545.725 588.047H545.588Z" fill="#468D8F"/>
<path d="M559.052 606.992C557.956 607.611 556.449 607.364 555.764 606.373C555.079 605.383 555.353 604.021 556.449 603.402C557.545 602.783 559.052 603.031 559.737 604.021C560.422 605.011 560.148 606.373 559.052 606.992Z" fill="#895474"/>
<path d="M461.105 332.392C460.557 334.868 457.68 336.601 454.803 335.982C451.926 335.363 450.145 332.887 450.693 330.288C451.378 327.688 454.118 326.078 456.995 326.574C459.872 327.069 461.653 329.669 461.105 332.268V332.392Z" fill="#696A93"/>
<path d="M485.64 337.093C485.092 339.569 482.352 341.178 479.749 340.559C477.009 340.064 475.228 337.588 475.913 335.112C476.461 332.636 479.201 331.15 481.941 331.646C484.681 332.141 486.462 334.617 485.777 337.093H485.64Z" fill="#CB6D2A"/>
<path d="M509.999 341.799C509.451 344.151 506.985 345.637 504.382 345.141C501.779 344.646 500.135 342.294 500.683 340.066C501.231 337.713 503.834 336.228 506.3 336.723C508.903 337.218 510.547 339.57 509.999 341.923V341.799Z" fill="#BA8434"/>
<path d="M534.505 346.634C533.957 348.862 531.628 350.224 529.162 349.729C526.696 349.234 525.189 347.005 525.737 344.901C526.285 342.672 528.751 341.31 531.08 341.806C533.546 342.301 535.053 344.405 534.505 346.634Z" fill="#6C8630"/>
<path d="M558.89 351.334C558.342 353.314 556.15 354.676 553.821 354.305C551.492 353.81 550.122 351.829 550.533 349.724C551.081 347.62 553.273 346.382 555.602 346.753C557.931 347.248 559.301 349.229 558.89 351.334Z" fill="#468D8F"/>
<path d="M583.293 356.164C582.882 358.145 580.69 359.26 578.635 358.888C576.443 358.517 575.073 356.536 575.621 354.555C576.032 352.698 578.224 351.46 580.279 351.832C582.471 352.203 583.841 354.184 583.293 356.041V356.164Z" fill="#895474"/>
<path d="M607.662 360.863C607.251 362.72 605.333 363.834 603.278 363.463C601.36 363.091 599.99 361.234 600.401 359.501C600.812 357.644 602.73 356.53 604.785 356.901C606.84 357.273 608.073 359.13 607.525 360.863H607.662Z" fill="#696A93"/>
<path d="M632.182 365.695C631.771 367.428 629.99 368.542 628.072 368.047C626.154 367.676 625.058 366.066 625.469 364.333C625.88 362.724 627.661 361.609 629.579 361.981C631.36 362.352 632.593 363.962 632.182 365.695Z" fill="#CB6D2A"/>
<path d="M656.633 370.405C656.222 372.014 654.578 373.005 652.934 372.633C651.153 372.262 650.194 370.776 650.468 369.291C650.879 367.805 652.523 366.815 654.304 367.062C655.948 367.434 657.044 368.919 656.77 370.405H656.633Z" fill="#BA8434"/>
<path d="M681.173 375.102C680.762 376.588 679.255 377.455 677.748 377.083C676.241 376.712 675.145 375.35 675.556 373.988C675.967 372.626 677.474 371.636 678.981 372.007C680.625 372.379 681.584 373.741 681.173 375.102Z" fill="#6C8630"/>
<path d="M445.782 253.051C447.289 255.28 446.604 258.251 444.138 259.613C441.672 261.098 438.384 260.355 436.74 258.127C435.233 255.899 435.918 252.927 438.384 251.566C440.85 250.08 444.138 250.699 445.782 252.927V253.051Z" fill="#696A93"/>
<path d="M466.756 240.786C468.263 242.89 467.578 245.738 465.249 247.1C462.92 248.461 459.769 247.842 458.262 245.738C456.755 243.633 457.44 240.786 459.769 239.424C462.098 238.062 465.249 238.681 466.756 240.786Z" fill="#CB6D2A"/>
<path d="M487.699 228.659C489.069 230.64 488.521 233.363 486.329 234.601C484.137 235.963 481.123 235.344 479.753 233.363C478.246 231.383 478.931 228.659 481.123 227.421C483.315 226.059 486.329 226.678 487.699 228.783V228.659Z" fill="#BA8434"/>
<path d="M508.826 216.283C510.196 218.14 509.511 220.74 507.456 221.978C505.401 223.216 502.524 222.597 501.291 220.74C499.921 218.883 500.606 216.283 502.661 215.045C504.716 213.807 507.593 214.426 508.963 216.283H508.826Z" fill="#6C8630"/>
<path d="M529.767 204.154C531 205.888 530.452 208.24 528.534 209.478C526.616 210.592 524.013 210.097 522.643 208.364C521.41 206.63 521.958 204.278 523.876 203.04C525.794 201.926 528.397 202.421 529.767 204.154Z" fill="#468D8F"/>
<path d="M550.734 191.893C551.967 193.502 551.419 195.731 549.638 196.845C547.857 197.959 545.391 197.464 544.158 195.731C542.925 194.121 543.473 191.893 545.391 190.779C547.172 189.664 549.638 190.16 550.871 191.893H550.734Z" fill="#895474"/>
<path d="M571.793 179.633C572.889 181.118 572.478 183.223 570.697 184.337C569.053 185.328 566.724 184.832 565.628 183.347C564.532 181.737 564.943 179.757 566.724 178.766C568.368 177.776 570.697 178.271 571.793 179.757V179.633Z" fill="#696A93"/>
<path d="M592.809 167.382C593.905 168.867 593.494 170.724 591.85 171.715C590.206 172.705 588.151 172.21 587.055 170.848C586.096 169.363 586.507 167.506 588.014 166.515C589.658 165.649 591.713 166.02 592.809 167.506V167.382Z" fill="#CB6D2A"/>
<path d="M613.695 155.126C614.654 156.488 614.243 158.221 612.736 159.087C611.229 159.954 609.311 159.583 608.352 158.221C607.393 156.859 607.804 155.126 609.311 154.259C610.681 153.393 612.736 153.764 613.695 155.126Z" fill="#BA8434"/>
<path d="M634.887 142.868C635.709 144.106 635.435 145.715 634.065 146.582C632.695 147.325 630.914 146.953 630.092 145.839C629.27 144.601 629.681 142.992 630.914 142.249C632.284 141.506 634.065 141.877 634.887 142.992V142.868Z" fill="#6C8630"/>
<path d="M655.792 130.483C656.614 131.597 656.203 133.082 654.97 133.825C653.737 134.568 652.093 134.197 651.271 133.082C650.449 131.968 650.86 130.483 652.093 129.74C653.326 128.997 654.97 129.368 655.792 130.359V130.483Z" fill="#468D8F"/>
<path d="M676.714 118.36C677.399 119.35 677.125 120.712 676.029 121.331C674.933 121.95 673.426 121.702 672.741 120.712C672.056 119.722 672.33 118.36 673.426 117.741C674.522 117.122 676.029 117.369 676.714 118.36Z" fill="#895474"/>
<path d="M444.567 367.687C442.923 369.916 439.635 370.535 437.169 369.049C434.703 367.564 434.018 364.592 435.662 362.364C437.306 360.136 440.594 359.517 442.923 361.002C445.389 362.488 446.074 365.459 444.43 367.687H444.567Z" fill="#696A93"/>
<path d="M465.35 380.069C463.843 382.173 460.692 382.792 458.363 381.431C456.034 380.069 455.349 377.221 456.856 375.117C458.363 373.012 461.514 372.393 463.843 373.755C466.172 375.117 466.857 377.964 465.35 380.069Z" fill="#CB6D2A"/>
<path d="M486.331 392.446C484.961 394.427 481.947 395.046 479.755 393.684C477.563 392.446 476.879 389.723 478.386 387.742C479.756 385.761 482.77 385.142 484.962 386.504C487.154 387.866 487.838 390.466 486.331 392.446Z" fill="#BA8434"/>
<path d="M507.156 404.826C505.786 406.683 503.046 407.178 500.854 406.064C498.799 404.826 498.251 402.35 499.621 400.369C500.991 398.389 503.731 398.017 505.786 399.255C507.841 400.493 508.526 402.969 507.019 404.826H507.156Z" fill="#6C8630"/>
<path d="M528.173 417.204C526.94 418.938 524.2 419.433 522.282 418.319C520.364 417.204 519.816 414.852 521.049 412.995C522.282 411.262 524.885 410.767 526.94 411.881C528.858 412.995 529.543 415.471 528.173 417.204Z" fill="#468D8F"/>
<path d="M549.155 429.592C547.922 431.201 545.456 431.697 543.675 430.582C541.894 429.468 541.346 427.24 542.579 425.63C543.812 424.021 546.278 423.526 548.059 424.64C549.84 425.754 550.388 427.983 549.155 429.592Z" fill="#895474"/>
<path d="M569.958 441.968C568.862 443.453 566.533 443.949 564.752 442.958C563.108 441.968 562.56 439.863 563.656 438.254C564.752 436.768 567.081 436.273 568.725 437.263C570.506 438.254 570.917 440.358 569.821 441.968H569.958Z" fill="#696A93"/>
<path d="M590.858 454.35C589.762 455.835 587.707 456.207 586.063 455.216C584.419 454.226 584.008 452.369 585.104 450.883C586.2 449.398 588.255 449.026 589.899 450.017C591.543 451.007 591.954 452.864 590.858 454.35Z" fill="#CB6D2A"/>
<path d="M611.875 466.731C610.916 468.093 608.998 468.341 607.491 467.598C605.984 466.731 605.573 464.998 606.532 463.636C607.491 462.275 609.409 461.903 610.916 462.77C612.423 463.636 612.834 465.493 611.875 466.731Z" fill="#BA8434"/>
<path d="M632.679 479.105C631.857 480.343 629.939 480.59 628.706 479.848C627.336 479.105 627.062 477.372 627.884 476.257C628.706 475.019 630.624 474.772 631.857 475.514C633.227 476.381 633.501 477.991 632.679 479.105Z" fill="#6C8630"/>
<path d="M653.66 491.493C652.838 492.607 651.194 492.979 649.961 492.236C648.728 491.493 648.317 490.007 649.139 488.893C649.961 487.779 651.605 487.531 652.838 488.274C654.071 489.017 654.345 490.503 653.66 491.617V491.493Z" fill="#468D8F"/>
<path d="M674.581 503.862C673.896 504.853 672.389 505.1 671.293 504.481C670.197 503.862 669.923 502.501 670.608 501.51C671.293 500.52 672.8 500.272 673.896 500.891C674.992 501.51 675.266 502.872 674.581 503.862Z" fill="#895474"/>
<path d="M461.644 288.699C462.192 291.299 460.411 293.775 457.534 294.394C454.657 294.889 451.917 293.279 451.232 290.68C450.684 288.08 452.465 285.604 455.342 284.985C458.219 284.49 460.959 286.099 461.644 288.699Z" fill="#696A93"/>
<path d="M486.034 284.123C486.582 286.599 484.801 288.951 482.198 289.57C479.458 290.065 476.855 288.58 476.17 286.104C475.622 283.628 477.403 281.275 480.006 280.78C482.746 280.285 485.349 281.894 486.034 284.247V284.123Z" fill="#CB6D2A"/>
<path d="M510.538 279.544C511.086 281.896 509.442 284.125 506.839 284.62C504.236 285.115 501.77 283.63 501.222 281.277C500.674 278.925 502.318 276.697 504.921 276.202C507.524 275.706 509.99 277.192 510.538 279.544Z" fill="#BA8434"/>
<path d="M535.066 274.959C535.614 277.188 533.97 279.292 531.504 279.787C529.038 280.283 526.709 278.797 526.161 276.692C525.613 274.464 527.257 272.359 529.586 271.864C532.052 271.369 534.518 272.855 534.929 274.959H535.066Z" fill="#6C8630"/>
<path d="M559.434 270.256C559.845 272.361 558.475 274.342 556.146 274.837C553.817 275.332 551.625 273.97 551.214 271.866C550.666 269.761 552.173 267.78 554.502 267.285C556.831 266.914 559.023 268.152 559.571 270.256H559.434Z" fill="#468D8F"/>
<path d="M584.003 265.669C584.414 267.65 583.043 269.507 580.988 269.879C578.796 270.25 576.741 269.012 576.33 267.155C575.919 265.174 577.289 263.317 579.481 262.946C581.673 262.574 583.728 263.812 584.139 265.669H584.003Z" fill="#895474"/>
<path d="M608.535 261.089C608.946 262.946 607.713 264.679 605.658 265.051C603.603 265.422 601.685 264.184 601.274 262.451C600.863 260.594 602.096 258.861 604.151 258.489C606.206 258.118 608.124 259.232 608.535 261.089Z" fill="#696A93"/>
<path d="M632.925 256.519C633.336 258.252 632.103 259.862 630.322 260.233C628.404 260.605 626.623 259.49 626.212 257.757C625.801 256.148 627.034 254.415 628.952 254.043C630.733 253.672 632.651 254.786 633.062 256.519H632.925Z" fill="#CB6D2A"/>
<path d="M657.431 251.814C657.842 253.423 656.746 254.909 654.965 255.156C653.184 255.528 651.54 254.537 651.266 252.928C650.855 251.442 651.951 249.833 653.732 249.462C655.376 249.09 657.157 250.204 657.431 251.69V251.814Z" fill="#BA8434"/>
<path d="M681.918 247.233C682.192 248.719 681.233 250.08 679.589 250.328C678.082 250.576 676.438 249.709 676.164 248.223C675.89 246.738 676.849 245.376 678.356 245.128C680 244.757 681.507 245.747 681.781 247.109L681.918 247.233Z" fill="#6C8630"/>
<path d="M412.021 221.969C414.487 223.455 415.172 226.426 413.528 228.53C411.884 230.759 408.596 231.378 406.13 229.892C403.664 228.407 402.979 225.435 404.623 223.331C406.267 221.102 409.555 220.483 412.021 221.969Z" fill="#696A93"/>
<path d="M425.733 203.035C428.062 204.397 428.747 207.244 427.24 209.349C425.733 211.454 422.582 212.073 420.253 210.711C417.924 209.349 417.239 206.502 418.746 204.397C420.253 202.292 423.404 201.673 425.733 203.035Z" fill="#CB6D2A"/>
<path d="M439.393 184.097C441.585 185.335 442.27 188.058 440.763 190.039C439.256 192.02 436.379 192.639 434.187 191.277C431.995 190.039 431.447 187.316 432.817 185.335C434.324 183.354 437.201 182.735 439.393 184.097Z" fill="#BA8434"/>
<path d="M453.091 165.275C455.146 166.513 455.694 168.989 454.324 170.97C452.954 172.827 450.214 173.322 448.022 172.084C445.967 170.846 445.419 168.246 446.652 166.389C448.022 164.532 450.762 163.913 452.954 165.151L453.091 165.275Z" fill="#6C8630"/>
<path d="M466.784 146.337C468.702 147.451 469.25 149.927 468.017 151.661C466.784 153.394 464.044 153.889 462.126 152.775C460.208 151.661 459.66 149.308 460.893 147.451C462.263 145.718 464.866 145.223 466.784 146.337Z" fill="#468D8F"/>
<path d="M480.477 127.396C482.258 128.51 482.806 130.739 481.71 132.348C480.477 133.957 478.011 134.453 476.23 133.462C474.449 132.348 473.901 130.12 475.134 128.51C476.367 126.901 478.833 126.406 480.614 127.52L480.477 127.396Z" fill="#895474"/>
<path d="M494.142 108.574C495.923 109.564 496.334 111.669 495.238 113.278C494.142 114.764 491.813 115.259 490.169 114.269C488.388 113.278 487.977 111.174 489.073 109.564C490.169 108.079 492.498 107.583 494.279 108.574H494.142Z" fill="#696A93"/>
<path d="M507.887 89.6342C509.531 90.6246 509.942 92.4816 508.983 93.9672C507.887 95.4528 505.832 95.8242 504.188 94.8338C502.544 93.9672 502.133 91.9864 503.229 90.5008C504.325 89.139 506.38 88.6438 508.024 89.6342H507.887Z" fill="#CB6D2A"/>
<path d="M521.642 70.6947C523.149 71.5613 523.56 73.2945 522.601 74.6563C521.642 76.0181 519.724 76.3895 518.217 75.5229C516.71 74.6563 516.299 72.9231 517.258 71.5613C518.217 70.1995 520.135 69.8281 521.642 70.6947Z" fill="#BA8434"/>
<path d="M535.303 51.8795C536.673 52.6223 537.084 54.3555 536.125 55.4697C535.303 56.7077 533.385 57.0791 532.152 56.2125C530.782 55.4697 530.508 53.7365 531.33 52.6223C532.152 51.3843 534.07 51.0129 535.303 51.8795Z" fill="#6C8630"/>
<path d="M549.032 32.9268C550.265 33.6696 550.539 35.1552 549.854 36.2694C549.032 37.3836 547.388 37.755 546.155 37.0122C544.922 36.2694 544.648 34.7838 545.47 33.6696C546.292 32.5554 547.936 32.3078 549.169 32.9268H549.032Z" fill="#468D8F"/>
<path d="M562.693 13.9879C563.789 14.6069 564.063 15.9687 563.378 16.9591C562.693 17.9495 561.186 18.1971 560.09 17.5781C558.994 16.9591 558.72 15.5973 559.405 14.6069C560.09 13.6165 561.597 13.3689 562.693 13.9879Z" fill="#895474"/>
<path d="M324.779 206.378C327.656 205.883 330.396 207.493 331.081 210.092C331.629 212.692 329.848 215.168 326.971 215.787C324.094 216.282 321.354 214.673 320.669 212.073C320.121 209.473 321.902 206.874 324.779 206.378Z" fill="#696A93"/>
<path d="M319.568 184.345C322.308 183.85 324.911 185.335 325.596 187.811C326.144 190.287 324.363 192.639 321.623 193.258C318.883 193.754 316.28 192.144 315.732 189.792C315.184 187.316 316.965 184.964 319.568 184.469V184.345Z" fill="#CB6D2A"/>
<path d="M314.5 162.184C317.103 161.689 319.569 163.174 320.117 165.527C320.665 167.879 319.021 170.107 316.418 170.602C313.815 171.098 311.349 169.612 310.801 167.26C310.253 164.908 311.897 162.679 314.5 162.184Z" fill="#BA8434"/>
<path d="M309.429 140.023C311.895 139.528 314.224 141.014 314.772 143.242C315.32 145.47 313.676 147.575 311.347 148.07C308.881 148.565 306.552 147.08 306.004 144.851C305.456 142.623 307.1 140.518 309.429 140.023Z" fill="#6C8630"/>
<path d="M304.22 117.989C306.549 117.618 308.741 118.856 309.289 120.961C309.7 123.065 308.33 125.046 306.001 125.541C303.672 125.913 301.48 124.675 300.932 122.57C300.521 120.465 301.891 118.484 304.22 117.989Z" fill="#468D8F"/>
<path d="M299.161 95.8286C301.353 95.4572 303.408 96.6952 303.819 98.5522C304.23 100.533 302.86 102.39 300.668 102.885C298.613 103.257 296.421 102.019 296.01 100.038C295.599 98.1808 296.969 96.2 299.024 95.8286H299.161Z" fill="#895474"/>
<path d="M294.073 73.7948C296.128 73.4234 298.046 74.5376 298.457 76.3946C298.868 78.1278 297.498 79.9848 295.58 80.3562C293.525 80.7276 291.607 79.6134 291.196 77.7564C290.785 75.8994 292.018 74.1662 294.073 73.7948Z" fill="#696A93"/>
<path d="M288.812 51.6258C290.73 51.2544 292.511 52.3686 292.922 53.978C293.333 55.7112 292.1 57.3206 290.182 57.692C288.401 58.0634 286.483 56.9491 286.072 55.2159C285.661 53.6065 286.894 51.8734 288.675 51.502L288.812 51.6258Z" fill="#CB6D2A"/>
<path d="M283.819 29.4671C285.6 29.0957 287.244 30.0861 287.518 31.6955C287.929 33.1811 286.833 34.7905 285.052 35.0381C283.408 35.4095 281.627 34.4191 281.353 32.8097C280.942 31.3241 282.175 29.7147 283.819 29.4671Z" fill="#BA8434"/>
<path d="M278.727 7.42869C280.234 7.18109 281.878 8.04769 282.152 9.53329C282.426 10.8951 281.467 12.3807 279.823 12.6283C278.316 12.8759 276.672 12.0093 276.398 10.5237C276.124 9.03809 277.083 7.67629 278.59 7.42869H278.727Z" fill="#6C8630"/>
<path d="M250.736 251.32C252.38 249.092 255.668 248.473 257.997 249.958C260.463 251.444 261.148 254.415 259.504 256.643C257.86 258.872 254.572 259.491 252.106 258.005C249.64 256.52 248.955 253.548 250.599 251.32H250.736Z" fill="#696A93"/>
<path d="M229.711 238.938C231.218 236.833 234.369 236.214 236.698 237.576C239.027 238.938 239.712 241.785 238.205 243.89C236.698 245.995 233.547 246.614 231.218 245.252C228.889 243.89 228.204 241.043 229.848 238.938H229.711Z" fill="#CB6D2A"/>
<path d="M208.995 226.559C210.365 224.579 213.379 223.96 215.571 225.321C217.763 226.683 218.448 229.283 216.941 231.264C215.571 233.245 212.557 233.864 210.365 232.502C208.173 231.14 207.488 228.54 208.995 226.559Z" fill="#BA8434"/>
<path d="M188.017 214.171C189.387 212.314 192.127 211.819 194.319 212.933C196.374 214.171 196.922 216.771 195.689 218.628C194.319 220.485 191.442 220.98 189.387 219.866C187.332 218.628 186.647 216.152 188.017 214.171Z" fill="#6C8630"/>
<path d="M167.047 201.796C168.28 200.063 170.883 199.568 172.938 200.682C174.856 201.796 175.404 204.272 174.171 206.005C172.938 207.738 170.335 208.234 168.28 207.119C166.362 205.881 165.677 203.529 167.047 201.796Z" fill="#468D8F"/>
<path d="M146.017 189.42C147.25 187.811 149.716 187.316 151.497 188.43C153.278 189.544 153.826 191.773 152.593 193.382C151.36 194.991 148.894 195.487 147.113 194.372C145.332 193.258 144.784 191.03 146.017 189.42Z" fill="#895474"/>
<path d="M125.23 177.032C126.326 175.422 128.655 175.051 130.436 176.041C132.08 177.032 132.628 179.136 131.532 180.622C130.436 182.231 128.107 182.603 126.463 181.612C124.819 180.622 124.271 178.517 125.367 177.032H125.23Z" fill="#696A93"/>
<path d="M104.303 164.65C105.399 163.164 107.454 162.793 109.098 163.66C110.742 164.65 111.153 166.507 110.057 167.993C109.098 169.478 106.906 169.85 105.262 168.859C103.755 167.869 103.207 166.012 104.303 164.526V164.65Z" fill="#CB6D2A"/>
<path d="M83.2581 152.275C84.2171 150.913 86.1351 150.542 87.6421 151.409C89.1491 152.275 89.5601 154.008 88.6011 155.37C87.6421 156.732 85.7241 157.103 84.2171 156.237C82.7101 155.37 82.2991 153.637 83.2581 152.275Z" fill="#BA8434"/>
<path d="M62.519 139.889C63.341 138.651 65.259 138.404 66.492 139.146C67.862 139.889 68.273 141.622 67.314 142.86C66.492 144.098 64.574 144.346 63.204 143.603C61.834 142.737 61.423 141.127 62.382 139.889H62.519Z" fill="#6C8630"/>
<path d="M41.4685 127.515C42.2905 126.401 43.9345 126.029 45.1675 126.772C46.4005 127.515 46.6745 129.001 45.9895 130.115C45.1675 131.229 43.5235 131.6 42.2905 130.734C41.0575 129.991 40.7835 128.505 41.4685 127.515Z" fill="#468D8F"/>
<path d="M20.7172 115.131C21.4022 114.141 22.9092 113.893 24.0052 114.512C25.1012 115.131 25.3752 116.493 24.6902 117.483C24.0052 118.474 22.4982 118.721 21.4022 118.102C20.3062 117.483 20.0322 116.122 20.7172 115.131Z" fill="#895474"/>
<path d="M-0.260113 102.757C0.424887 101.89 1.65789 101.643 2.61689 102.262C3.57589 102.881 3.84989 103.995 3.16489 104.862C2.47989 105.728 1.24689 105.976 0.287888 105.357C-0.671112 104.738 -0.945113 103.624 -0.260113 102.757Z" fill="#696A93"/>
<path d="M233.521 330.298C232.973 327.698 234.754 325.222 237.631 324.603C240.508 324.108 243.248 325.717 243.933 328.317C244.481 330.917 242.7 333.393 239.823 334.012C236.946 334.507 234.069 332.898 233.521 330.298Z" fill="#696A93"/>
<path d="M209.115 334.877C208.567 332.401 210.348 330.048 212.951 329.429C215.691 328.934 218.431 330.544 218.979 333.02C219.527 335.496 217.746 337.848 215.143 338.467C212.403 338.962 209.663 337.353 209.115 334.877Z" fill="#CB6D2A"/>
<path d="M184.637 339.455C184.089 337.227 185.733 334.875 188.336 334.379C190.939 333.884 193.405 335.37 193.953 337.722C194.501 340.074 192.857 342.303 190.254 342.798C187.651 343.293 185.185 341.807 184.637 339.455Z" fill="#BA8434"/>
<path d="M160.129 344.164C159.581 341.935 161.225 339.707 163.691 339.336C166.157 338.84 168.486 340.326 169.034 342.554C169.582 344.783 167.938 346.887 165.472 347.383C163.006 347.878 160.677 346.392 160.129 344.288V344.164Z" fill="#6C8630"/>
<path d="M135.637 348.741C135.226 346.636 136.596 344.656 138.925 344.16C141.254 343.665 143.446 345.151 143.857 347.132C144.268 349.236 142.898 351.217 140.569 351.712C138.24 352.207 136.048 350.846 135.5 348.741H135.637Z" fill="#468D8F"/>
<path d="M111.114 353.32C110.703 351.463 112.073 349.482 114.128 349.111C116.32 348.739 118.375 349.977 118.786 351.958C119.197 353.815 117.827 355.796 115.635 356.167C113.443 356.539 111.388 355.301 110.977 353.32H111.114Z" fill="#895474"/>
<path d="M86.7662 357.909C86.3552 356.052 87.5882 354.318 89.6432 353.947C91.6982 353.576 93.6163 354.814 94.0273 356.547C94.4383 358.404 93.2053 360.137 91.1503 360.508C89.0953 360.88 87.1772 359.766 86.7662 357.909Z" fill="#696A93"/>
<path d="M62.2512 362.614C61.8402 360.881 63.0732 359.271 64.8542 358.9C66.7722 358.528 68.5532 359.643 68.9642 361.252C69.3752 362.985 68.1422 364.595 66.3612 364.966C64.4432 365.337 62.6622 364.223 62.2512 362.49V362.614Z" fill="#CB6D2A"/>
<path d="M37.7593 367.19C37.3483 365.581 38.5813 364.095 40.2253 363.847C42.0063 363.6 43.6503 364.466 43.9243 366.076C44.3353 367.561 43.2393 369.171 41.4583 369.418C39.8143 369.79 38.0333 368.799 37.7593 367.19Z" fill="#BA8434"/>
<path d="M13.3089 371.769C13.0349 370.283 13.9939 368.922 15.5009 368.674C17.0079 368.426 18.6519 369.293 18.9259 370.655C19.1999 372.017 18.2409 373.502 16.5969 373.75C14.9529 373.997 13.4459 373.131 13.1719 371.769H13.3089Z" fill="#6C8630"/>
<path d="M283.153 397.03C280.687 395.544 280.002 392.573 281.646 390.468C283.29 388.24 286.578 387.621 289.044 388.983C291.51 390.468 292.195 393.44 290.551 395.668C288.907 397.896 285.619 398.515 283.153 397.03Z" fill="#696A93"/>
<path d="M269.456 415.973C267.127 414.611 266.442 411.763 267.949 409.659C269.456 407.554 272.607 406.935 274.936 408.297C277.265 409.659 277.95 412.506 276.443 414.611C274.936 416.715 271.785 417.334 269.456 415.973Z" fill="#CB6D2A"/>
<path d="M255.748 434.913C253.556 433.675 252.871 430.951 254.378 428.971C255.748 426.99 258.762 426.371 260.954 427.733C263.146 428.971 263.831 431.694 262.324 433.675C260.817 435.656 257.94 436.275 255.748 434.913Z" fill="#BA8434"/>
<path d="M242.092 453.858C240.037 452.62 239.489 450.144 240.722 448.164C242.092 446.307 244.969 445.811 247.024 447.049C249.079 448.287 249.627 450.887 248.394 452.744C247.024 454.601 244.284 455.22 242.092 453.982V453.858Z" fill="#6C8630"/>
<path d="M228.368 472.672C226.45 471.558 225.902 469.206 227.135 467.349C228.368 465.616 231.108 465.12 233.026 466.235C234.944 467.349 235.492 469.701 234.259 471.558C233.026 473.291 230.423 473.786 228.368 472.672Z" fill="#468D8F"/>
<path d="M214.652 491.61C212.871 490.496 212.323 488.267 213.556 486.658C214.789 484.925 217.255 484.553 219.036 485.668C220.817 486.782 221.365 489.01 220.132 490.62C218.899 492.229 216.433 492.724 214.652 491.61Z" fill="#895474"/>
<path d="M200.997 510.432C199.216 509.442 198.805 507.337 199.901 505.852C200.997 504.366 203.326 503.871 204.97 504.985C206.751 505.976 207.162 508.08 206.066 509.566C204.97 511.051 202.641 511.547 200.86 510.556L200.997 510.432Z" fill="#696A93"/>
<path d="M187.274 529.375C185.63 528.385 185.219 526.528 186.315 525.042C187.411 523.557 189.466 523.185 191.11 524.176C192.754 525.166 193.165 527.023 192.206 528.509C191.11 529.871 189.055 530.366 187.411 529.375H187.274Z" fill="#CB6D2A"/>
<path d="M173.584 548.309C172.077 547.442 171.666 545.709 172.625 544.347C173.584 542.986 175.502 542.614 177.009 543.481C178.516 544.347 178.927 546.081 177.968 547.442C177.009 548.804 175.091 549.176 173.584 548.309Z" fill="#BA8434"/>
<path d="M159.845 567.135C158.475 566.392 158.064 564.659 159.023 563.544C159.845 562.306 161.763 562.059 163.133 562.802C164.503 563.544 164.777 565.278 163.955 566.516C162.996 567.754 161.215 568.125 159.982 567.258L159.845 567.135Z" fill="#6C8630"/>
<path d="M146.205 586.075C144.972 585.332 144.698 583.846 145.383 582.732C146.205 581.618 147.849 581.37 149.082 582.113C150.315 582.856 150.726 584.341 149.904 585.456C149.082 586.57 147.438 586.817 146.205 586.198V586.075Z" fill="#468D8F"/>
<path d="M132.488 605.015C131.392 604.272 131.118 603.034 131.803 602.043C132.488 601.053 133.995 600.682 135.091 601.424C136.187 602.043 136.461 603.405 135.776 604.396C135.091 605.386 133.584 605.634 132.488 605.015Z" fill="#895474"/>
<path d="M370.612 412.621C367.735 413.116 364.995 411.507 364.31 408.907C363.762 406.307 365.543 403.831 368.42 403.212C371.297 402.717 374.037 404.327 374.722 406.926C375.27 409.526 373.489 412.002 370.612 412.621Z" fill="#696A93"/>
<path d="M375.684 434.661C372.944 435.156 370.34 433.67 369.792 431.194C369.244 428.718 370.889 426.366 373.629 425.871C376.369 425.376 378.972 426.985 379.52 429.337C380.068 431.813 378.287 434.289 375.684 434.661Z" fill="#CB6D2A"/>
<path d="M380.761 456.816C378.158 457.311 375.692 455.825 375.144 453.473C374.596 451.121 376.24 448.892 378.843 448.397C381.446 447.902 384.049 449.388 384.597 451.616C385.145 453.968 383.501 456.197 380.898 456.692L380.761 456.816Z" fill="#BA8434"/>
<path d="M385.933 478.983C383.467 479.478 381.138 477.992 380.59 475.764C380.042 473.535 381.686 471.431 384.152 470.936C386.618 470.44 388.947 471.926 389.495 474.031C390.043 476.259 388.399 478.364 386.07 478.859L385.933 478.983Z" fill="#6C8630"/>
<path d="M391.011 501.018C388.819 501.513 386.49 500.151 385.942 498.047C385.394 495.942 387.038 493.961 389.23 493.466C391.559 492.971 393.751 494.333 394.299 496.437C394.71 498.542 393.34 500.523 391.011 501.018Z" fill="#468D8F"/>
<path d="M396.076 523.174C393.884 523.546 391.829 522.308 391.418 520.451C390.87 518.47 392.377 516.613 394.432 516.242C396.487 515.87 398.679 517.108 399.09 518.965C399.638 520.946 398.131 522.803 396.076 523.174Z" fill="#895474"/>
<path d="M401.223 545.211C399.168 545.582 397.25 544.468 396.839 542.611C396.428 540.878 397.798 539.021 399.716 538.649C401.771 538.278 403.689 539.392 404.1 541.249C404.511 542.982 403.278 544.839 401.223 545.211Z" fill="#696A93"/>
<path d="M406.416 567.372C404.498 567.744 402.717 566.629 402.306 565.02C401.895 563.287 403.128 561.677 405.046 561.306C406.827 560.935 408.745 562.049 409.156 563.658C409.567 565.392 408.334 567.001 406.416 567.372Z" fill="#CB6D2A"/>
<path d="M411.457 589.528C409.676 589.899 408.032 588.909 407.758 587.299C407.347 585.69 408.443 584.204 410.224 583.957C411.868 583.585 413.649 584.576 413.923 586.185C414.334 587.671 413.238 589.28 411.457 589.528Z" fill="#BA8434"/>
<path d="M416.495 611.569C414.851 611.94 413.344 610.95 413.07 609.588C412.796 608.226 413.755 606.741 415.262 606.493C416.769 606.246 418.413 607.112 418.687 608.598C418.961 610.083 418.002 611.445 416.495 611.693V611.569Z" fill="#6C8630"/>
</g>
</svg>
