<svg width="21" height="20" viewBox="0 0 21 20" fill="none" xmlns="http://www.w3.org/2000/svg">
<path d="M2.34375 5.83333C2.34375 4.66656 2.34375 4.08317 2.57082 3.63752C2.77056 3.24552 3.08927 2.92681 3.48127 2.72707C3.92692 2.5 4.51031 2.5 5.67708 2.5C6.84386 2.5 7.42725 2.5 7.8729 2.72707C8.2649 2.92681 8.58361 3.24552 8.78335 3.63752C9.01042 4.08317 9.01042 4.66656 9.01042 5.83333V14.1667C9.01042 15.3334 9.01042 15.9168 8.78335 16.3625C8.58361 16.7545 8.2649 17.0732 7.8729 17.2729C7.42725 17.5 6.84386 17.5 5.67708 17.5C4.51031 17.5 3.92692 17.5 3.48127 17.2729C3.08927 17.0732 2.77056 16.7545 2.57082 16.3625C2.34375 15.9168 2.34375 15.3334 2.34375 14.1667V5.83333Z" stroke="#787486" stroke-width="1.25" stroke-linecap="round" stroke-linejoin="round"/>
<path d="M5.67969 14.168H5.68717" stroke="#787486" stroke-width="1.66667" stroke-linecap="round" stroke-linejoin="round"/>
<path d="M2.34375 5.83203H9.01042" stroke="#787486" stroke-width="1.25" stroke-linecap="round" stroke-linejoin="round"/>
<path d="M10.2176 6.89036C9.92182 5.78198 9.77399 5.2278 9.87582 4.74666C9.96541 4.32343 10.1861 3.93956 10.5063 3.65004C10.8703 3.3209 11.4222 3.17241 12.526 2.87542C13.6297 2.57843 14.1817 2.42994 14.6607 2.53221C15.0822 2.62217 15.4645 2.8438 15.7528 3.16534C16.0806 3.53088 16.2285 4.08507 16.5242 5.19344L18.6366 13.1097C18.9323 14.218 19.0802 14.7722 18.9783 15.2533C18.8887 15.6766 18.6681 16.0604 18.3478 16.35C17.9838 16.6791 17.4319 16.8276 16.3282 17.1246C15.2244 17.4216 14.6725 17.5701 14.1934 17.4678C13.7719 17.3778 13.3897 17.1562 13.1013 16.8347C12.7736 16.4691 12.6257 15.9149 12.3299 14.8066L10.2176 6.89036Z" stroke="#787486" stroke-width="1.25" stroke-linecap="round" stroke-linejoin="round"/>
<path d="M15.5 13.9121L15.5072 13.9102" stroke="#787486" stroke-width="1.66667" stroke-linecap="round" stroke-linejoin="round"/>
<path d="M10.6797 6.66682L16.0964 5" stroke="#787486" stroke-width="1.25" stroke-linecap="round" stroke-linejoin="round"/>
</svg>
