<svg width="488" height="455" viewBox="0 0 488 455" fill="none" xmlns="http://www.w3.org/2000/svg">
<path opacity="0.6" d="M0.00675225 452.209C0.00675225 453.559 1.10734 454.66 2.86289 454.66H404.95C406.699 454.66 408.117 453.559 408.117 452.209C408.117 450.858 406.699 449.758 404.95 449.758H2.85614C1.10734 449.758 0 450.858 0 452.209H0.00675225Z" fill="#A1A3B2"/>
<path d="M3.9511 422.804C3.85657 422.804 3.76205 422.797 3.67427 422.777C2.94504 422.621 2.4724 421.906 2.62769 421.176C2.62769 421.176 2.85051 420.103 3.3029 418.178C3.47171 417.449 4.20093 417.004 4.93016 417.172C5.65938 417.341 6.11177 418.07 5.93622 418.8C5.49733 420.677 5.27451 421.73 5.27451 421.737C5.13947 422.371 4.57905 422.81 3.9511 422.81V422.804Z" fill="#A7A9AC"/>
<path d="M6.98727 410.38C6.87249 410.38 6.7577 410.366 6.63616 410.332C5.91369 410.137 5.48831 409.401 5.67737 408.678C6.17702 406.808 6.70368 404.904 7.24385 403.006C7.44641 402.291 8.1959 401.872 8.91837 402.075C9.63409 402.277 10.0527 403.027 9.85016 403.749C9.30999 405.633 8.79008 407.523 8.29718 409.38C8.13513 409.988 7.58821 410.386 6.99402 410.386L6.98727 410.38ZM11.3559 395.37C11.2208 395.37 11.0858 395.349 10.9508 395.309C10.2418 395.086 9.84341 394.323 10.0662 393.614C10.6604 391.744 11.2681 389.86 11.8893 388.017C12.1256 387.308 12.8954 386.93 13.6043 387.166C14.3133 387.402 14.6914 388.172 14.4551 388.881C13.8406 390.711 13.233 392.581 12.6455 394.431C12.4632 395.005 11.9298 395.376 11.3559 395.376V395.37ZM16.4267 380.589C16.2714 380.589 16.1094 380.562 15.9541 380.502C15.2518 380.238 14.9007 379.462 15.1573 378.76C15.8528 376.896 16.5617 375.053 17.2707 373.263C17.5475 372.568 18.3308 372.23 19.0263 372.507C19.7217 372.784 20.0593 373.567 19.7825 374.263C19.0803 376.032 18.3781 377.862 17.6893 379.705C17.4868 380.252 16.9736 380.589 16.4199 380.589H16.4267ZM22.3145 366.12C22.1322 366.12 21.9432 366.079 21.7609 366.005C21.0789 365.701 20.775 364.898 21.0789 364.216C21.8959 362.386 22.7332 360.59 23.5637 358.861C23.8878 358.186 24.698 357.909 25.3665 358.233C26.0417 358.557 26.3185 359.368 25.9944 360.036C25.1774 361.738 24.3469 363.513 23.5434 365.316C23.3206 365.816 22.8277 366.12 22.3078 366.12H22.3145ZM114.055 356.741C113.549 356.741 113.069 356.457 112.833 355.971C111.996 354.229 111.105 352.494 110.186 350.826C109.828 350.171 110.065 349.347 110.72 348.99C111.375 348.632 112.198 348.868 112.556 349.523C113.495 351.238 114.413 353.014 115.271 354.803C115.595 355.478 115.311 356.282 114.636 356.606C114.447 356.694 114.251 356.741 114.048 356.741H114.055ZM29.2692 352.129C29.0464 352.129 28.8235 352.075 28.6142 351.961C27.9593 351.596 27.7297 350.772 28.0876 350.124C29.0734 348.355 30.0794 346.64 31.0787 345.019C31.4704 344.385 32.3076 344.189 32.9423 344.58C33.577 344.972 33.7728 345.803 33.3812 346.444C32.4022 348.031 31.4163 349.712 30.4508 351.447C30.201 351.893 29.7418 352.143 29.2692 352.143V352.129ZM106.243 343.23C105.818 343.23 105.392 343.028 105.129 342.649C104.015 341.042 102.847 339.496 101.672 338.044C101.199 337.464 101.287 336.613 101.868 336.14C102.448 335.668 103.299 335.756 103.772 336.336C104.987 337.835 106.189 339.435 107.35 341.096C107.776 341.711 107.627 342.555 107.013 342.98C106.776 343.142 106.506 343.223 106.243 343.223V343.23ZM37.7093 338.997C37.4257 338.997 37.1421 338.909 36.899 338.726C36.3049 338.274 36.1833 337.43 36.6357 336.836C37.8646 335.202 39.1272 333.642 40.3831 332.211C40.876 331.65 41.7268 331.589 42.294 332.082C42.8544 332.575 42.9152 333.426 42.4223 333.993C41.2136 335.377 39.9915 336.883 38.7964 338.463C38.5331 338.814 38.1279 339.003 37.716 339.003L37.7093 338.997ZM96.0474 331.448C95.7233 331.448 95.3992 331.333 95.1426 331.097C93.7044 329.793 92.2122 328.578 90.72 327.498C90.1123 327.059 89.9772 326.215 90.4161 325.607C90.855 324.999 91.699 324.864 92.3067 325.303C93.8867 326.444 95.4532 327.714 96.9657 329.091C97.5193 329.591 97.5598 330.448 97.0602 331.002C96.7901 331.299 96.4255 331.448 96.0609 331.448H96.0474ZM48.3708 327.646C47.9792 327.646 47.5876 327.477 47.3243 327.147C46.8516 326.566 46.9394 325.715 47.5201 325.242C49.1406 323.926 50.8016 322.751 52.4491 321.765C53.0906 321.38 53.9211 321.59 54.3059 322.224C54.6908 322.866 54.4815 323.696 53.8468 324.081C52.3073 325.006 50.7543 326.107 49.2284 327.342C48.9785 327.545 48.6747 327.646 48.3776 327.646H48.3708ZM83.0428 322.947C82.8673 322.947 82.685 322.913 82.5162 322.839C80.7741 322.096 78.9781 321.488 77.1753 321.029C76.4528 320.847 76.0139 320.104 76.203 319.382C76.3853 318.659 77.128 318.22 77.8505 318.409C79.7816 318.902 81.7059 319.557 83.5763 320.347C84.265 320.638 84.5823 321.434 84.292 322.123C84.0759 322.636 83.5695 322.947 83.0496 322.947H83.0428ZM62.0911 320.57C61.4767 320.57 60.9162 320.145 60.7744 319.523C60.6056 318.794 61.058 318.072 61.7873 317.903C63.7859 317.444 65.8318 317.201 67.8574 317.187H67.8641C68.6069 317.187 69.2146 317.788 69.2146 318.531C69.2146 319.28 68.6204 319.888 67.8709 319.888C66.0411 319.902 64.1978 320.118 62.3882 320.53C62.2869 320.557 62.1856 320.563 62.0844 320.563L62.0911 320.57Z" fill="#A7A9AC"/>
<path d="M118.858 368.564H118.851C118.257 368.564 117.737 368.173 117.568 367.605C117.568 367.592 117.244 366.552 116.603 364.803C116.346 364.101 116.704 363.325 117.406 363.068C117.926 362.872 118.493 363.028 118.851 363.406C119.202 363.028 119.763 362.872 120.283 363.055C120.985 363.298 121.363 364.074 121.113 364.776C120.478 366.586 120.154 367.612 120.154 367.619C119.979 368.179 119.452 368.564 118.865 368.564H118.858Z" fill="#A7A9AC"/>
<path d="M123.319 356.31C123.157 356.31 122.988 356.276 122.826 356.215C122.13 355.938 121.793 355.155 122.063 354.459C122.799 352.589 123.569 350.712 124.338 348.862C124.629 348.173 125.425 347.849 126.107 348.139C126.796 348.43 127.12 349.22 126.83 349.908C126.06 351.738 125.304 353.602 124.575 355.445C124.365 355.979 123.852 356.303 123.319 356.303V356.31ZM129.639 341.583C129.45 341.583 129.254 341.543 129.072 341.455C128.396 341.138 128.099 340.334 128.417 339.659C129.267 337.829 130.152 335.992 131.03 334.21C131.361 333.541 132.171 333.265 132.839 333.595C133.508 333.926 133.785 334.737 133.454 335.405C132.583 337.167 131.712 338.977 130.868 340.793C130.638 341.286 130.152 341.576 129.639 341.576V341.583ZM136.89 327.296C136.668 327.296 136.445 327.242 136.236 327.127C135.581 326.762 135.344 325.939 135.709 325.29C136.708 323.488 137.721 321.725 138.727 320.044C139.112 319.403 139.942 319.193 140.584 319.578C141.225 319.963 141.435 320.793 141.05 321.435C140.057 323.089 139.058 324.831 138.072 326.607C137.822 327.053 137.363 327.302 136.89 327.302V327.296ZM233.013 327.215C232.514 327.215 232.027 326.938 231.798 326.452C230.92 324.656 230.009 322.873 229.077 321.158C228.719 320.503 228.969 319.679 229.624 319.328C230.279 318.97 231.102 319.22 231.454 319.875C232.399 321.624 233.331 323.44 234.222 325.27C234.553 325.939 234.269 326.749 233.601 327.08C233.412 327.174 233.209 327.215 233.007 327.215H233.013ZM145.29 313.65C145.027 313.65 144.757 313.576 144.527 313.413C143.913 312.988 143.757 312.144 144.183 311.53C145.358 309.828 146.553 308.174 147.741 306.614C148.193 306.02 149.044 305.905 149.638 306.358C150.233 306.81 150.347 307.661 149.895 308.255C148.734 309.781 147.559 311.401 146.411 313.069C146.148 313.447 145.729 313.657 145.297 313.657L145.29 313.65ZM225.181 313.245C224.735 313.245 224.303 313.029 224.04 312.623C222.946 310.929 221.818 309.281 220.691 307.728C220.252 307.127 220.387 306.276 220.988 305.838C221.595 305.399 222.44 305.534 222.878 306.135C224.04 307.728 225.194 309.416 226.315 311.152C226.72 311.779 226.538 312.617 225.91 313.022C225.681 313.17 225.431 313.238 225.181 313.238V313.245ZM155.249 301.118C154.919 301.118 154.588 300.996 154.324 300.753C153.777 300.247 153.75 299.389 154.257 298.842C155.688 297.31 157.147 295.865 158.592 294.541C159.145 294.035 159.996 294.075 160.503 294.629C161.009 295.183 160.968 296.034 160.415 296.54C159.024 297.816 157.613 299.214 156.228 300.692C155.965 300.976 155.601 301.125 155.243 301.125L155.249 301.118ZM215.471 300.524C215.107 300.524 214.742 300.375 214.472 300.085C213.108 298.599 211.704 297.202 210.306 295.932C209.752 295.433 209.712 294.575 210.218 294.021C210.718 293.468 211.575 293.427 212.129 293.934C213.588 295.257 215.046 296.716 216.464 298.262C216.97 298.809 216.937 299.666 216.383 300.173C216.126 300.409 215.795 300.53 215.471 300.53V300.524ZM167.417 290.78C166.971 290.78 166.532 290.558 166.269 290.152C165.87 289.525 166.06 288.687 166.687 288.289C168.49 287.148 170.32 286.162 172.13 285.352C172.812 285.048 173.615 285.352 173.919 286.034C174.223 286.716 173.919 287.512 173.237 287.823C171.542 288.579 169.827 289.504 168.132 290.578C167.91 290.72 167.66 290.787 167.41 290.787L167.417 290.78ZM203.25 290.267C203.014 290.267 202.771 290.207 202.555 290.071C200.853 289.045 199.118 288.167 197.396 287.452C196.707 287.168 196.376 286.378 196.66 285.689C196.944 285.001 197.734 284.67 198.422 284.953C200.272 285.716 202.136 286.662 203.952 287.756C204.594 288.14 204.796 288.971 204.411 289.612C204.155 290.031 203.709 290.267 203.25 290.267ZM182.258 285.25C181.583 285.25 180.995 284.744 180.914 284.055C180.826 283.313 181.36 282.644 182.103 282.556C183.082 282.442 184.081 282.381 185.06 282.361C186.161 282.34 187.268 282.381 188.355 282.475C189.098 282.536 189.651 283.191 189.584 283.941C189.523 284.683 188.882 285.237 188.119 285.176C187.119 285.088 186.106 285.055 185.1 285.075C184.202 285.088 183.298 285.149 182.406 285.25C182.352 285.25 182.298 285.257 182.251 285.257L182.258 285.25Z" fill="#A7A9AC"/>
<path d="M238.162 339.16C237.588 339.16 237.075 338.802 236.886 338.255C236.886 338.241 236.514 337.215 235.819 335.473C235.542 334.777 235.88 333.994 236.568 333.711C237.115 333.495 237.716 333.65 238.081 334.068C238.432 333.643 239.019 333.454 239.566 333.65C240.275 333.893 240.647 334.663 240.404 335.372C239.776 337.188 239.452 338.214 239.445 338.221C239.269 338.775 238.756 339.153 238.175 339.16C238.175 339.16 238.162 339.16 238.155 339.16H238.162Z" fill="#A7A9AC"/>
<path d="M242.747 326.433C242.585 326.433 242.423 326.406 242.261 326.345C241.565 326.075 241.214 325.291 241.484 324.596C242.241 322.631 243.024 320.653 243.821 318.715C244.104 318.026 244.894 317.689 245.583 317.972C246.272 318.256 246.609 319.046 246.326 319.734C245.542 321.659 244.766 323.617 244.01 325.568C243.8 326.108 243.287 326.433 242.747 326.433ZM249.195 310.923C249.013 310.923 248.824 310.882 248.642 310.801C247.96 310.498 247.656 309.694 247.96 309.012C248.831 307.068 249.722 305.136 250.606 303.266C250.924 302.591 251.734 302.307 252.409 302.625C253.084 302.942 253.375 303.752 253.051 304.427C252.173 306.284 251.288 308.195 250.431 310.126C250.208 310.626 249.715 310.93 249.195 310.93V310.923ZM256.521 295.805C256.312 295.805 256.096 295.758 255.893 295.65C255.232 295.299 254.982 294.482 255.326 293.82C256.332 291.909 257.352 290.039 258.365 288.256C258.729 287.608 259.56 287.378 260.208 287.743C260.856 288.108 261.086 288.938 260.721 289.586C259.728 291.349 258.716 293.199 257.723 295.083C257.48 295.542 257.014 295.805 256.528 295.805H256.521ZM347.296 284.306C346.857 284.306 346.432 284.097 346.169 283.705C345.001 281.97 343.792 280.255 342.57 278.614C342.124 278.013 342.246 277.169 342.847 276.724C343.448 276.278 344.292 276.406 344.737 277C345.986 278.675 347.222 280.424 348.41 282.2C348.829 282.821 348.66 283.658 348.039 284.077C347.81 284.232 347.546 284.306 347.29 284.306H347.296ZM264.961 281.288C264.712 281.288 264.455 281.22 264.225 281.072C263.597 280.667 263.422 279.83 263.827 279.202C265.009 277.379 266.211 275.609 267.399 273.942C267.831 273.334 268.675 273.192 269.283 273.624C269.89 274.057 270.032 274.901 269.6 275.508C268.432 277.142 267.257 278.878 266.096 280.667C265.839 281.065 265.4 281.281 264.961 281.281V281.288ZM337.026 271.038C336.655 271.038 336.29 270.89 336.02 270.593C334.596 269.019 333.151 267.514 331.713 266.13C331.172 265.61 331.159 264.752 331.679 264.219C332.199 263.679 333.056 263.665 333.59 264.185C335.068 265.61 336.567 267.156 338.026 268.783C338.525 269.337 338.485 270.194 337.924 270.694C337.668 270.93 337.344 271.045 337.02 271.045L337.026 271.038ZM274.988 267.838C274.671 267.838 274.354 267.73 274.097 267.5C273.537 267.007 273.483 266.15 273.975 265.589C275.441 263.922 276.926 262.362 278.391 260.944C278.925 260.424 279.782 260.438 280.302 260.978C280.822 261.518 280.809 262.369 280.268 262.889C278.857 264.252 277.426 265.758 276.008 267.372C275.738 267.676 275.366 267.831 274.988 267.831V267.838ZM324.596 259.796C324.326 259.796 324.056 259.715 323.819 259.546C322.091 258.331 320.342 257.237 318.62 256.312C317.965 255.961 317.715 255.137 318.067 254.482C318.418 253.827 319.241 253.577 319.896 253.929C321.713 254.908 323.556 256.055 325.372 257.332C325.98 257.764 326.129 258.608 325.696 259.215C325.433 259.587 325.014 259.789 324.589 259.789L324.596 259.796ZM287.507 256.744C287.061 256.744 286.622 256.521 286.365 256.116C285.967 255.488 286.156 254.651 286.784 254.253C288.708 253.037 290.66 252.024 292.577 251.255C293.273 250.978 294.056 251.309 294.34 252.004C294.617 252.7 294.286 253.483 293.59 253.766C291.821 254.475 290.025 255.414 288.236 256.542C288.013 256.683 287.763 256.751 287.513 256.751L287.507 256.744ZM309.512 252.733C309.41 252.733 309.309 252.72 309.208 252.7C307.223 252.247 305.217 251.991 303.246 251.943C302.496 251.923 301.909 251.302 301.929 250.559C301.949 249.81 302.564 249.216 303.313 249.243C305.46 249.297 307.641 249.573 309.802 250.066C310.531 250.235 310.984 250.958 310.822 251.687C310.68 252.315 310.119 252.74 309.505 252.74L309.512 252.733Z" fill="#A7A9AC"/>
<path d="M354.203 295.885C353.696 295.885 353.224 295.594 352.994 295.135C352.994 295.128 352.495 294.142 351.583 292.508C351.218 291.854 351.455 291.03 352.103 290.665C352.758 290.301 353.582 290.537 353.939 291.185C353.939 291.199 353.953 291.205 353.96 291.219V291.199C354.223 290.496 355 290.138 355.702 290.388C356.404 290.645 356.769 291.421 356.512 292.124L355.472 294.986C355.29 295.493 354.817 295.844 354.277 295.871C354.25 295.871 354.223 295.871 354.196 295.871L354.203 295.885Z" fill="#A7A9AC"/>
<path d="M357.565 286.643C357.41 286.643 357.254 286.616 357.106 286.562C356.404 286.305 356.039 285.529 356.296 284.827L357.686 280.998C357.943 280.296 358.72 279.938 359.422 280.188C360.124 280.444 360.489 281.221 360.232 281.923L358.841 285.752C358.639 286.299 358.125 286.643 357.572 286.643H357.565Z" fill="#A7A9AC"/>
<path d="M361.277 276.434C361.122 276.434 360.966 276.407 360.818 276.353C360.116 276.097 359.751 275.32 360.007 274.618L361.047 271.755C361.304 271.053 362.08 270.688 362.783 270.945C363.485 271.201 363.849 271.978 363.593 272.68L362.553 275.543C362.35 276.09 361.837 276.434 361.284 276.434H361.277Z" fill="#A7A9AC"/>
<path d="M346.714 213.589C346.89 205.243 356.207 196.452 364.911 193.785C373.614 191.118 391.899 187.918 398.118 193.596C404.336 199.275 403.891 201.672 403.891 201.672C403.891 201.672 431.466 106.568 431.642 102.841C431.817 99.1141 434.741 83.7531 426.483 86.3256C418.225 88.9049 406.423 99.1209 403.492 102.936C400.562 106.757 390.893 127.621 390.893 127.621L382.291 146.892L372.71 168.202L361.528 186.142L352.21 199.551L346.714 213.582V213.589Z" fill="#891815"/>
<path d="M414.82 62.9851C413.659 66.2463 414.489 68.0289 415.239 70.149C415.988 72.2692 415.657 74.5041 414.942 75.2536C414.942 75.2536 419.533 73.9842 419.432 70.8918C419.331 67.7926 418.027 63.4645 416.967 62.904C415.901 62.3369 414.82 62.9851 414.82 62.9851Z" fill="#A0481C"/>
<path d="M377.781 226.763L367.565 226.783C367.565 226.783 364.061 234.582 364.844 235.162C365.627 235.743 366.545 238.221 366.545 238.221C364.445 242.968 364.263 242.907 363.655 245.412C362.872 248.646 363.426 256.364 365.877 258.606C367.322 259.929 370.954 260.28 371.346 258.363C372.636 252.043 373.919 247.924 375.451 244.872C377.058 241.658 385.161 234.264 385.161 234.264L377.781 226.763Z" fill="#723216"/>
<g style="mix-blend-mode:multiply" opacity="0.2">
<path d="M377.717 241.767C380.674 238.35 385.144 234.272 385.144 234.272L377.764 226.77H373.51C373.666 226.878 373.821 226.946 373.976 226.953C375.489 226.993 375.84 229.35 376.245 230.767C376.643 232.185 377.69 241.443 377.69 241.443C377.69 241.443 377.69 241.584 377.717 241.767Z" fill="#0B2025"/>
</g>
<path d="M375.52 226.364L384.021 238.437L409.375 217.978L409.469 193.617C409.469 193.617 395.418 202.712 391.718 205.98C386.337 210.727 375.513 226.358 375.513 226.358L375.52 226.364Z" fill="#314444"/>
<path d="M366.667 255.906C364.52 250.255 365.803 244.272 367.551 240.37C368.787 237.628 368.909 230.68 370.408 226.778H367.565C367.565 226.778 364.061 234.583 364.844 235.164C365.627 235.744 366.545 238.222 366.545 238.222C364.445 242.969 364.263 242.908 363.655 245.413C362.872 248.648 363.426 256.365 365.877 258.607C366.842 259.491 368.78 259.937 370.083 259.566C368.828 258.992 367.106 257.054 366.674 255.906H366.667Z" fill="#351E11"/>
<path d="M382.188 243.049L372.208 245.216C372.208 245.216 370.425 253.575 371.31 253.98C372.201 254.386 373.612 256.614 373.612 256.614C372.559 261.698 372.363 261.678 372.296 264.25C372.208 267.572 374.375 275 377.245 276.681C378.933 277.667 382.566 277.248 382.539 275.297C382.471 268.849 382.863 264.554 383.713 261.246C384.611 257.768 390.979 248.835 390.979 248.835L382.188 243.049Z" fill="#723216"/>
<g style="mix-blend-mode:multiply" opacity="0.2">
<path d="M390.984 248.836L382.193 243.049L379.681 243.596C379.978 243.799 380.275 244.17 380.592 244.899C381.234 246.385 384.211 254.332 384.704 255.622C384.873 256.074 385.164 256.722 385.521 257.323C387.702 253.441 390.984 248.836 390.984 248.836Z" fill="#0B2025"/>
</g>
<path d="M379.894 243.131L390.421 254.238L411.231 227.81L406.2 203.976C406.2 203.976 397.943 214.137 395.012 218.108C390.752 223.881 379.894 243.124 379.894 243.124V243.131Z" fill="#4E6566"/>
<path d="M377.454 273.878C374.165 268.807 374.159 262.683 375.05 258.504C375.678 255.56 374.334 248.747 374.982 244.615L372.2 245.216C372.2 245.216 370.418 253.575 371.302 253.98C372.194 254.385 373.605 256.613 373.605 256.613C372.552 261.698 372.356 261.677 372.288 264.25C372.2 267.572 374.368 274.999 377.238 276.68C378.365 277.342 380.357 277.369 381.552 276.734C380.202 276.437 378.115 274.905 377.447 273.872L377.454 273.878Z" fill="#351E11"/>
<g style="mix-blend-mode:multiply" opacity="0.2">
<path d="M404.416 236.472L410.101 229.254C408.069 227.16 405.503 224.669 405.503 224.669L396.266 216.452C395.787 217.073 395.361 217.64 395.01 218.113C393.781 219.78 391.999 222.576 390.088 225.702L404.409 236.478L404.416 236.472Z" fill="#0B2025"/>
</g>
<path d="M467.993 18.71L477.433 1.26264L487.027 0L488 6.67782L484.847 8.50764L485.096 10.9654L477.298 14.5305L475.812 20.2765L467.993 18.71Z" fill="#FFA969"/>
<path d="M446.869 95.8197L460.509 60.3779L477.672 18.65L469.388 13.1335C469.388 13.1335 460.698 26.0368 457.018 32.431C454.925 36.0637 447.835 48.2377 445.951 50.925C444.067 53.6123 438.888 59.9323 438.888 59.9323L431.684 75.7322L433.993 95.212L446.876 95.8197H446.869Z" fill="#333A70"/>
<g opacity="0.5">
<path d="M459.172 53.577L443 83.482C443 83.482 445.33 88.2018 447.977 92.9215L460.502 60.3764L477.666 18.6484L475.1 16.9402L474.668 16.8794L459.165 53.577H459.172Z" fill="#0B2025"/>
</g>
<path d="M439.377 149.963C439.377 149.963 450.019 136.324 452.611 117.566C453.867 108.492 450.876 85.4062 450.876 85.4062L442.483 87.7357L409.141 94.5959C409.141 94.5959 396.258 120.024 393.355 127.276C389.297 137.411 391.552 144.575 393.247 146.776C394.942 148.977 397.865 150.814 401.795 149.511C405.529 148.275 415.907 144.291 415.907 144.291L439.377 149.956V149.963Z" fill="#333A70"/>
<path d="M385.41 212.592L408.414 238.338C408.414 238.338 433.451 193.099 436.834 179.892C439.143 170.878 451.189 124.842 451.189 124.842L417.421 120.061L403.323 153.201L397.064 195.536L385.416 212.585L385.41 212.592Z" fill="#333A70"/>
<g opacity="0.4">
<path d="M396.196 133.727C396.196 133.727 400.828 130.729 404.069 129.811C408.059 128.677 412.374 128.393 414.832 125.706C416.783 123.579 424.69 112.431 427.323 112.944C429.362 113.343 435.169 121.249 435.169 121.249C435.169 121.249 429.477 119.163 427.35 118.285C426.175 117.799 422.279 123.91 420.47 128.69C419.018 132.525 415.136 132.613 415.136 132.613C415.136 132.613 414.325 131.823 409.693 131.513C403.022 131.06 396.196 133.727 396.196 133.727Z" fill="#0B2025"/>
</g>
<path d="M421.078 86.6234L423.982 69.2908L433.907 76.1847L445.163 91.3701L421.078 86.6234Z" fill="white"/>
<g opacity="0.4">
<path d="M445.66 94.3681C438.753 93.8616 445.619 93.9697 445.599 93.7671C445.424 93.1392 445.12 91.8968 444.647 89.5606C444.451 88.5748 443.783 87.7848 442.865 87.1636L436.389 88.9596L409.145 94.5976C409.145 94.5976 396.262 120.026 393.358 127.278C389.3 137.413 391.555 144.583 393.25 146.778C394.945 148.979 397.869 150.816 401.798 149.512C405.532 148.277 415.91 144.293 415.91 144.293L417.443 144.664C417.922 144.023 418.233 143.537 418.294 143.314C418.591 142.213 416.396 139.884 416.396 139.884C416.396 139.884 402.217 145.151 397.983 145.65C393.757 146.15 392.19 138.324 392.649 134.597C393.115 130.87 396.444 125.873 398.773 120.208C401.103 114.55 403 114.516 405.161 108.885C407.322 103.261 408.821 100.357 414.276 96.495C419.732 92.6328 430.691 92.8623 435.917 94.7529L445.646 94.3478L445.66 94.3681Z" fill="#0B2025"/>
</g>
<path d="M408.977 98.6175C415.27 92.8579 422.772 92.7094 426.89 92.9524C445.634 94.0463 452.67 109.259 452.67 109.259C452.67 109.259 452.575 103.114 452.339 100.042C452.103 96.9699 438.781 76.8352 438.781 76.8352L433.609 79.2592L438.308 86.7203L422.069 77.9898C422.069 77.9898 413.595 76.3085 402.11 93.1753C393.13 106.362 382.327 136.774 375.439 151.169C368.687 165.294 353.205 190.135 347.783 199.365C342.361 208.589 343.313 213.781 343.867 216.529C345.406 224.2 350.47 229.568 350.47 229.568C350.47 229.568 365.959 194.511 380.503 159.569C392.921 129.738 402.846 104.242 408.984 98.631L408.977 98.6175Z" fill="#E33B0F"/>
<g opacity="0.4">
<path d="M430.94 82.7335L422.095 77.98C422.095 77.98 413.621 76.2988 402.136 93.1655C398.476 98.5402 394.506 106.784 390.63 115.63C390.779 115.326 390.934 115.002 391.096 114.664C401.177 93.2533 413.959 83.591 415.357 84.5228C416.754 85.4546 420.083 89.1143 421.028 90.1743C421.974 91.2344 425.181 86.8861 429.34 86.0488C429.34 86.0488 430.036 84.6376 430.94 82.7335Z" fill="#891815"/>
</g>
<path d="M411.399 137.723C411.122 135.036 415.41 130.66 416.044 129.951C418.786 126.92 420.352 126.636 421.264 126.913C422.175 127.19 428.461 128.749 428.934 129.722C429.407 130.694 428.245 131.727 428.245 131.727C428.245 131.727 429.049 133.638 428.758 134.212C428.475 134.786 427.611 134.961 427.611 134.961C427.611 134.961 427.8 135.583 427.388 136.143C426.544 137.298 424.93 136.852 424.93 136.852C424.93 136.852 425.2 138.074 424.032 138.715C422.999 139.283 421.277 139.235 421.277 139.235L419.13 140.464L414.68 142.152C414.68 142.152 411.804 141.592 411.399 137.723Z" fill="#FFA969"/>
<path d="M478.503 9.6444L480.151 3.76333L485.066 3.26367L485.316 5.72819L482.568 7.66604L483.284 8.87466L478.503 9.6444Z" fill="#FF8A54"/>
<path d="M421.284 139.235C420.778 139.255 419.927 138.492 420.575 137.831C421.224 137.169 422.236 136.926 422.236 136.926C422.236 136.926 421.98 136.845 421.885 136.453C421.784 136.062 421.959 135.839 421.959 135.839C421.959 135.839 419.86 136.048 419.887 136.251C419.995 137.081 418.455 139.6 417.53 140.113C416.605 140.626 413.979 141.733 413.979 141.733L414.681 142.145L419.13 140.457C419.13 140.457 421.507 139.222 421.278 139.228L421.284 139.235Z" fill="#FF8A54"/>
<g opacity="0.4">
<path d="M405.48 147.987C405.48 147.987 403.725 150.114 402.645 155.063C401.801 158.905 397.081 195.542 397.081 195.542C397.081 195.542 408.694 161.235 411.449 153.875C414.204 146.515 419.133 140.472 419.133 140.472L414.684 142.16L405.48 147.994V147.987Z" fill="#0B2025"/>
</g>
<path d="M421.69 79.6892L424.91 66.5969L442.378 72.2619C442.378 72.2619 439.427 73.9567 439.036 75.1653C438.82 75.8473 439.63 77.6028 439.292 78.224C437.604 81.357 438.253 82.2348 442.317 88.1158C444.64 91.4784 421.69 79.6825 421.69 79.6825V79.6892Z" fill="#FF8A54"/>
<path d="M424.648 67.6976L424.378 68.7982C425.303 71.3977 427.909 77.819 438.307 80.4725C438.51 79.7703 438.861 79.0478 439.3 78.2308C439.638 77.6029 438.827 75.8473 439.043 75.1721C439.428 73.9635 442.386 72.2687 442.386 72.2687L425.343 66.7388C425.1 67.0291 424.85 67.387 424.648 67.6976Z" fill="#C66340"/>
<path d="M422.227 77.3462L418.567 81.8971L421.025 90.1819L427.925 88.7977L428.837 91.35L447.817 94.4695L438.067 81.8228L442.165 88.3183C442.165 88.3183 434.029 85.8066 430.883 84.2738C428.519 83.1192 422.227 77.3529 422.227 77.3529V77.3462Z" fill="white"/>
<path d="M436.156 41.6399C436.156 41.6399 440.984 47.1428 441.936 49.4723C442.389 50.5729 442.591 53.1725 443.3 54.1313C444.516 55.7855 449.586 57.3453 449.586 57.3453C449.586 57.3453 449.357 58.7835 448.513 60.2554C448.087 61.0049 447.412 61.6396 447.412 61.6396C447.412 61.6396 447.655 62.3148 448.02 62.7672C448.357 63.1858 448.891 63.5707 448.823 63.8273C448.54 64.9616 444.435 65.9879 444.435 65.9879C444.435 65.9879 447.102 65.9744 448.702 66.096C449.404 66.15 448.243 67.3654 448.655 69.2289C448.931 70.4916 450.262 71.2748 450.343 72.5645C450.39 73.3477 449.208 75.1978 448.283 75.738C444.563 77.8986 435.198 76.4199 431.342 74.5226C426.528 72.1526 426.184 70.2688 426.184 70.2688L420.6 56.5688L421.72 46.3258L436.163 41.6399H436.156Z" fill="#FFA969"/>
<path d="M422.564 59.7232C422.564 59.7232 424.4 61.1276 425.109 61.418C425.555 61.6003 427 61.7623 427 61.7623C427 61.7623 424.657 57.414 425.048 55.7395C425.156 55.2736 426.419 53.7003 426.419 53.7003C426.419 53.7003 423.428 47.7112 429.37 44.4364C434.008 41.8774 433.468 36.2799 424.711 39.4534C421.497 40.6215 415.717 42.4648 413.928 45.3817C410.896 50.3445 408.094 52.4512 408.094 52.4512C408.094 52.4512 409.113 54.3283 410.747 58.8927C411.97 62.2957 410.612 67.2518 414.144 68.5887C417 69.669 419.485 71.5056 420.822 73.1058C422.483 75.0977 422.26 77.3394 422.26 77.3394C422.26 77.3394 423.867 75.1112 424.468 72.2618C425.487 67.4341 422.564 59.7299 422.564 59.7299V59.7232Z" fill="#A0481C"/>
<path d="M433.841 57.5031C433.423 56.4498 434.368 55.0116 434.591 54.0122C435.07 51.8448 437.015 50.4539 438.473 49.4613C438.885 49.1777 441.748 53.2695 440.931 53.8299C439.04 55.1263 437.967 57.3545 437.231 58.4416C436.981 58.813 434.969 60.3525 433.841 57.5031Z" fill="#FF8A54"/>
<path d="M440.047 54.6201C439.162 54.5391 438.224 56.3149 437.744 58.4013C437.663 58.7389 439.817 58.5363 441.424 57.0171C442.066 56.4094 441.654 55.7409 441.114 55.1873C440.823 54.8969 440.742 54.6876 440.047 54.6201Z" fill="white"/>
<path d="M440.264 54.2838C440.933 54.0137 441.372 54.088 441.716 54.2703C441.676 53.5275 439.974 53.217 438.88 53.4533C436.443 53.9799 433.924 58.7334 434.147 59.7192C434.269 60.2594 436.45 60.1581 436.909 60.2324C436.976 58.9022 437.53 55.3911 440.264 54.2905V54.2838Z" fill="#FFA969"/>
<path d="M441.493 55.1882C441.959 55.8162 441.986 56.5927 441.547 56.9168C441.108 57.2409 440.379 56.9978 439.906 56.3699C439.44 55.7419 439.413 54.9654 439.852 54.6413C440.291 54.3105 441.027 54.5603 441.493 55.1882Z" fill="#58595B"/>
<path d="M441.029 55.5193C441.231 55.7894 441.245 56.127 441.049 56.2688C440.86 56.4106 440.543 56.3026 440.333 56.0325C440.131 55.7556 440.117 55.4248 440.306 55.283C440.495 55.1412 440.819 55.2492 441.022 55.5193H441.029Z" fill="#211F1F"/>
<path d="M440.617 54.3778C440.604 54.1685 440.55 54.0064 440.482 53.8376C437.95 54.2495 437.086 58.7667 437.079 58.8072C437.079 58.9557 437.187 59.0773 437.329 59.084C437.478 59.0908 437.599 58.976 437.613 58.8342C437.62 58.6789 438.497 54.7694 440.617 54.3778Z" fill="#C96335"/>
<path d="M434.123 57.7591C434.102 57.9954 433.569 57.597 433.549 57.3674C433.144 53.4715 438.079 48.583 438.937 48.9611C439.383 49.1569 439.578 49.8726 439.592 50.3588C439.619 51.3176 434.46 54.275 434.123 57.7591Z" fill="#A0481C"/>
<path d="M420.908 66.8667C423.629 69.0071 426.992 69.2704 428.416 67.4541C429.841 65.6378 425.317 65.4352 424.824 62.0052C423.919 55.7325 419.99 57.8932 418.565 59.7095C417.14 61.5258 418.194 64.7263 420.908 66.8667Z" fill="#FFA969"/>
<path d="M422.089 63.9847C422.771 65.2068 423.987 65.828 424.804 65.3756C425.621 64.9232 424.615 63.8766 423.926 62.6545C423.244 61.4324 423.143 60.4938 422.326 60.9462C421.509 61.3986 421.401 62.7625 422.083 63.9847H422.089Z" fill="#FF8A54"/>
<path d="M425.966 31.1955L401.069 55.7898L415.252 70.1475L440.149 45.5532L425.966 31.1955Z" fill="#0B2025"/>
<path d="M434.036 22.7444L392.908 63.3728L395.589 66.0868L436.717 25.4584L434.036 22.7444Z" fill="#4E6566"/>
<path d="M403.455 60.6196C403.455 61.754 404.373 62.6723 405.508 62.679C406.642 62.679 407.56 61.7607 407.567 60.6264C407.567 59.492 406.649 58.5737 405.514 58.5737C404.38 58.5737 403.462 59.492 403.462 60.6264L403.455 60.6196Z" fill="#FBC41C"/>
<path d="M401.805 76.978V68.7404C401.805 66.6945 403.466 65.0403 405.512 65.0403C407.558 65.0403 409.212 66.7013 409.212 68.7472V76.9847H401.805V76.978Z" fill="#FBC41C"/>
<path d="M404.519 66.6617H406.396L405.971 49.248L404.155 50.3554L404.519 66.6617Z" fill="#FBC41C"/>
<path d="M411.915 42.7143L404.162 50.373L405.102 51.3241L412.854 43.6654L411.915 42.7143Z" fill="#FBC41C"/>
<path d="M427.096 136.462C426.042 137.184 425.286 135.557 425.036 134.726C424.78 133.889 424.793 133.018 424.28 132.978C423.767 132.944 422.065 132.998 422.065 132.998C422.065 132.998 423.774 133.281 424.239 133.477C424.705 133.666 424.84 136.327 424.928 136.867C424.928 136.867 426.218 137.218 427.096 136.468V136.462Z" fill="#FF8A54"/>
<path d="M427.602 134.965C427.608 135.005 427.615 135.025 427.622 135.059C427.608 134.998 427.602 134.965 427.602 134.965Z" fill="#FF8A54"/>
<path d="M428.624 134.395C428.245 134.774 427.739 133.741 427.422 132.951C427.023 131.944 427.131 131.06 425.497 130.803C423.816 130.54 422.277 130.5 422.277 130.5C422.277 130.5 425.902 130.986 426.341 131.654C426.78 132.323 427.455 134.071 427.611 134.969C427.611 134.969 428.326 134.821 428.671 134.355C428.657 134.368 428.637 134.375 428.624 134.395Z" fill="#FF8A54"/>
<path d="M428.986 130.594C428.986 130.594 428.939 130.648 428.918 130.689C428.716 131.107 428.223 130.689 428.088 130.425C427.946 130.162 427.575 129.433 426.609 129.365C425.644 129.298 423.199 129.041 423.199 129.041C423.199 129.041 425.509 129.615 426.542 129.73C427.575 129.838 427.885 130.817 428.257 131.735C428.257 131.735 428.81 131.229 428.993 130.601L428.986 130.594Z" fill="#FF8A54"/>
<path opacity="0.4" d="M430.042 35.3408C428.185 38.0619 422.459 46.502 420.866 49.1353C418.955 52.2886 421.669 56.5964 424.91 60.1007C424.991 60.1885 425.086 60.256 425.18 60.3236L440.129 45.5567L430.042 35.3408Z" fill="#4E6566"/>
<path d="M88.1979 394.424H151.397V397.355H125.888C123.194 397.355 121 399.549 121 402.243V403.844C121 406.538 123.194 408.725 125.888 408.725H151.397V411.656H88.1979C83.8833 411.656 80.379 408.158 80.379 403.837V402.237C80.379 397.922 83.8833 394.418 88.1979 394.418V394.424Z" fill="#0891C1"/>
<path d="M125.871 408.733C123.177 408.733 120.982 406.539 120.982 403.852V402.251C120.982 399.557 123.177 397.363 125.871 397.363H147.93C147.93 397.363 145.864 398.571 145.864 402.704C145.864 407.531 147.93 408.733 147.93 408.733H125.871Z" fill="#C9E2DC"/>
<path d="M175.517 448.719C178.211 448.719 180.406 446.531 180.406 443.83V439.469C180.406 436.775 178.218 434.58 175.517 434.58H89.8871C89.8871 434.58 91.96 437.166 91.96 441.298C91.96 446.126 89.8871 448.712 89.8871 448.712H175.517V448.719Z" fill="#E2E0C5"/>
<path d="M157.022 434.586H146.502C146.502 434.586 147.535 436.761 147.535 441.501C147.535 446.241 146.502 448.719 146.502 448.719H157.022V434.586Z" fill="#353C4F"/>
<path d="M146.502 449.317C146.428 449.317 146.347 449.304 146.273 449.27C145.969 449.142 145.821 448.791 145.949 448.48C145.956 448.46 146.935 446.036 146.935 441.498C146.935 436.988 145.969 434.861 145.956 434.841C145.814 434.544 145.942 434.186 146.246 434.044C146.543 433.902 146.901 434.031 147.043 434.328C147.09 434.422 148.136 436.677 148.136 441.498C148.136 446.319 147.097 448.838 147.056 448.946C146.962 449.176 146.739 449.317 146.502 449.317Z" fill="#AF6127"/>
<path d="M168.329 431.657H87.1621V434.587H145.797C148.491 434.587 150.686 436.782 150.686 439.476V443.838C150.686 446.532 148.498 448.726 145.797 448.726H87.1621V451.657H168.329C172.644 451.657 176.148 448.159 176.148 443.845V439.483C176.148 435.168 172.644 431.664 168.329 431.664V431.657Z" fill="#4E6566"/>
<path d="M175.516 431.657H146.259C150.573 431.657 154.078 435.155 154.078 439.476V443.838C154.078 448.159 150.573 451.657 146.259 451.657H175.516C179.83 451.657 183.335 448.159 183.335 443.845V439.483C183.335 435.168 179.83 431.664 175.516 431.664V431.657Z" fill="#678484"/>
<path d="M158.053 411.663H94.8533V414.593H158.053C160.74 414.593 162.935 416.787 162.935 419.482V423.837C162.935 426.531 160.74 428.725 158.053 428.725H94.8533V431.656H158.053C162.367 431.656 165.865 428.158 165.865 423.837V419.482C165.865 415.16 162.367 411.663 158.053 411.663Z" fill="#E44B1A"/>
<path d="M158.064 428.726C160.751 428.726 161.744 426.538 161.744 423.837V419.482C161.744 416.788 160.751 414.594 158.064 414.594H98.3148C98.3148 414.594 100.388 417.173 100.388 421.312C100.388 426.14 98.3148 428.726 98.3148 428.726H158.064Z" fill="#E4F4F0"/>
<g style="mix-blend-mode:multiply" opacity="0.3">
<path d="M138.592 421.468H125.034C124.703 421.468 124.433 421.198 124.433 420.868C124.433 420.537 124.703 420.267 125.034 420.267H138.592C138.923 420.267 139.193 420.537 139.193 420.868C139.193 421.198 138.923 421.468 138.592 421.468Z" fill="#353C4F"/>
</g>
<g style="mix-blend-mode:multiply" opacity="0.3">
<path d="M139.685 431.714L137.389 420.864H126.228L128.524 431.714H139.685Z" fill="#0B2025"/>
</g>
<g style="mix-blend-mode:multiply" opacity="0.3">
<path d="M137.795 439.853L132.791 438.205L127.781 439.853V431.669H137.795V439.853Z" fill="#0B2025"/>
</g>
<path d="M88.1992 394.424H151.399V397.355H125.889C123.195 397.355 121.001 399.549 121.001 402.243V403.843C121.001 406.537 123.195 408.725 125.889 408.725H151.399V411.656H88.1992C83.8846 411.656 80.3802 408.158 80.3802 403.837V402.236C80.3802 397.922 83.8846 394.417 88.1992 394.417V394.424Z" fill="#18AED6"/>
<g style="mix-blend-mode:multiply" opacity="0.4">
<path d="M125.886 408.732C123.192 408.732 120.997 406.538 120.997 403.851V402.25C120.997 399.556 123.192 397.362 125.886 397.362H151.395V394.431H124.671C120.356 394.431 116.852 397.929 116.852 402.25V403.851C116.852 408.172 120.356 411.67 124.671 411.67H151.395V408.739H125.886V408.732Z" fill="#353C4F"/>
</g>
<path d="M137.389 438.73L131.811 436.9L126.227 438.73V420.864H137.389V438.73Z" fill="#FBC41C"/>
<g style="mix-blend-mode:overlay" opacity="0.3">
<path d="M137.382 420.864H126.227V431.613H137.382V420.864Z" fill="white"/>
</g>
<path d="M158.707 414.646C158.707 414.646 159.618 416.591 159.618 421.466C159.618 426.341 158.707 428.677 158.707 428.677C161.09 428.353 162.934 426.314 162.934 423.843V419.488C162.934 417.016 161.09 414.977 158.707 414.653V414.646Z" fill="#353C4F"/>
<path d="M125.447 397.383C122.948 397.599 120.983 399.699 120.983 402.251V403.851C120.983 406.404 122.948 408.497 125.447 408.713C125.447 408.713 124.677 406.572 124.677 402.967C124.677 399.361 125.447 397.383 125.447 397.383Z" fill="#353C4F"/>
<path d="M158.173 414.896C158.173 414.896 159.031 416.828 159.031 421.466C159.031 426.105 158.167 428.434 158.16 428.461C158.126 428.549 158.113 428.637 158.119 428.725C158.606 428.725 159.031 428.644 159.409 428.502C159.672 427.638 160.233 425.335 160.233 421.466C160.233 417.597 159.706 415.666 159.429 414.829C159.051 414.687 158.612 414.606 158.126 414.599C158.119 414.701 158.126 414.802 158.173 414.896Z" fill="#8DCCDB"/>
<path d="M398.874 448.496C401.575 448.496 403.769 446.301 403.769 443.601V439.232C403.769 436.531 401.575 434.337 398.874 434.337H320.32C320.32 434.337 322.393 436.923 322.393 441.068C322.393 445.903 320.32 448.489 320.32 448.489H398.874V448.496Z" fill="#E2E0C5"/>
<path d="M387.549 434.345H377.016C377.016 434.345 378.056 436.519 378.056 441.273C378.056 446.026 377.016 448.497 377.016 448.497H387.549V434.345Z" fill="#353C4F"/>
<path d="M377.004 449.097C376.93 449.097 376.849 449.083 376.775 449.049C376.471 448.921 376.322 448.57 376.451 448.259C376.458 448.239 377.443 445.815 377.443 441.264C377.443 436.713 376.471 434.62 376.464 434.593C376.322 434.296 376.451 433.932 376.755 433.79C377.052 433.648 377.41 433.776 377.551 434.073C377.599 434.168 378.645 436.43 378.645 441.258C378.645 446.072 377.605 448.611 377.565 448.719C377.47 448.948 377.248 449.09 377.011 449.09L377.004 449.097Z" fill="#7F4632"/>
<path d="M391.663 431.406H317.566V434.343H376.282C378.983 434.343 381.177 436.537 381.177 439.238V443.607C381.177 446.307 378.983 448.502 376.282 448.502H317.566V451.439H391.663C395.984 451.439 399.495 447.935 399.495 443.613V439.245C399.495 434.923 395.991 431.419 391.663 431.419V431.406Z" fill="#C9320E"/>
<path d="M398.872 431.406H376.773C381.094 431.406 384.605 434.91 384.605 439.231V443.6C384.605 447.921 381.101 451.425 376.773 451.425H398.872C403.194 451.425 406.705 447.921 406.705 443.6V439.231C406.705 434.91 403.2 431.406 398.872 431.406Z" fill="#EF4511"/>
<path d="M390.839 355.985H326.599V353.007H390.839C393.573 353.007 395.801 350.779 395.801 348.038V343.608C395.801 340.867 393.573 338.639 390.839 338.639H326.599V335.661H390.839C395.227 335.661 398.779 339.219 398.779 343.608V348.038C398.779 352.427 395.221 355.985 390.839 355.985Z" fill="#EF4511"/>
<path d="M390.84 338.648C393.575 338.648 394.581 340.876 394.581 343.617V348.047C394.581 350.788 393.575 353.016 390.84 353.016H330.105C330.105 353.016 332.212 350.39 332.212 346.19C332.212 341.288 330.105 338.654 330.105 338.654H390.84V338.648Z" fill="#DAEAE5"/>
<path d="M391.493 352.954C391.493 352.954 392.418 350.976 392.418 346.02C392.418 341.064 391.493 338.687 391.493 338.687C393.91 339.018 395.787 341.091 395.787 343.603V348.032C395.787 350.544 393.91 352.617 391.493 352.947V352.954Z" fill="#353C4F"/>
<path d="M390.938 352.701C390.938 352.701 391.809 350.736 391.809 346.023C391.809 341.31 390.931 338.94 390.925 338.913C390.891 338.825 390.877 338.731 390.884 338.643C391.377 338.643 391.809 338.724 392.194 338.866C392.457 339.743 393.031 342.086 393.031 346.016C393.031 349.946 392.498 351.911 392.214 352.761C391.829 352.91 391.384 352.991 390.884 352.998C390.877 352.896 390.884 352.795 390.938 352.694V352.701Z" fill="#AF6127"/>
<path d="M354.899 315.543C357.593 315.543 359.787 313.349 359.787 310.662V309.061C359.787 306.367 357.593 304.173 354.899 304.173H332.84C332.84 304.173 334.906 305.381 334.906 309.514C334.906 314.342 332.84 315.55 332.84 315.55H354.899V315.543Z" fill="#E2E0C5"/>
<path d="M385.403 301.24H329.408V304.17H354.917C357.611 304.17 359.806 306.365 359.806 309.059V310.659C359.806 313.353 357.611 315.541 354.917 315.541H329.408V318.471H385.403C389.718 318.471 393.222 314.974 393.222 310.652V309.052C393.222 304.737 389.718 301.233 385.403 301.233V301.24Z" fill="#F45F14"/>
<path d="M354.917 315.541C357.611 315.541 359.806 313.346 359.806 310.659V309.059C359.806 306.365 357.611 304.17 354.917 304.17H329.408V301.24H356.133C360.447 301.24 363.952 304.737 363.952 309.059V310.659C363.952 314.98 360.447 318.478 356.133 318.478H329.408V315.547H354.917V315.541Z" fill="#D3380F"/>
<path d="M355.34 304.192C357.838 304.408 359.803 306.508 359.803 309.06V310.661C359.803 313.213 357.838 315.306 355.34 315.522C355.34 315.522 356.11 313.382 356.11 309.776C356.11 306.17 355.34 304.192 355.34 304.192Z" fill="#353C4F"/>
<path d="M387.85 373.087C390.55 373.087 392.752 370.892 392.752 368.191V363.823C392.752 361.122 390.557 358.927 387.856 358.927H331.848C331.848 358.927 333.921 361.52 333.921 365.659C333.921 370.501 331.848 373.087 331.848 373.087H387.856H387.85Z" fill="#E2E0C5"/>
<path d="M382.711 358.927H372.171C372.171 358.927 373.211 361.108 373.211 365.855C373.211 370.609 372.171 373.087 372.171 373.087H382.711V358.927Z" fill="#353C4F"/>
<path d="M372.138 373.691C372.063 373.691 371.982 373.677 371.908 373.643C371.604 373.515 371.456 373.164 371.584 372.853C371.591 372.833 372.577 370.402 372.577 365.851C372.577 361.328 371.604 359.201 371.597 359.18C371.456 358.877 371.584 358.519 371.888 358.377C372.185 358.235 372.543 358.363 372.691 358.66C372.739 358.755 373.785 361.017 373.785 365.851C373.785 370.686 372.745 373.211 372.698 373.313C372.604 373.542 372.381 373.684 372.144 373.684L372.138 373.691Z" fill="#353C4F"/>
<path d="M387.865 355.993H329.115V358.931H371.458C374.159 358.931 376.353 361.125 376.353 363.826V368.194C376.353 370.895 374.159 373.09 371.458 373.09H329.115V376.027H387.865C392.193 376.027 395.705 372.523 395.705 368.194V363.826C395.705 359.498 392.193 355.993 387.865 355.993Z" fill="#0B5384"/>
<path d="M395.068 355.993H371.935C376.264 355.993 379.775 359.498 379.775 363.826V368.194C379.775 372.523 376.264 376.027 371.935 376.027H395.068C399.396 376.027 402.907 372.523 402.907 368.194V363.826C402.907 359.498 399.396 355.993 395.068 355.993Z" fill="#117EC9"/>
<path opacity="0.3" d="M377.992 373.163C376.554 374.912 374.373 376.026 371.935 376.026H395.068C397.506 376.026 399.687 374.912 401.125 373.163H377.992Z" fill="#005AA6"/>
<path d="M395.068 355.993H371.935C375.095 355.993 377.816 357.871 379.052 360.571H402.185C400.949 357.871 398.228 355.993 395.068 355.993Z" fill="#18AED6"/>
<path d="M359.533 417.1C356.838 417.1 354.644 419.294 354.644 421.982V423.582C354.644 426.276 356.838 428.47 359.533 428.47H388.796C388.796 428.47 386.73 427.262 386.73 423.129C386.73 418.302 388.796 417.1 388.796 417.1H359.533Z" fill="#C9E2DC"/>
<path d="M336.251 431.408H392.246V428.478H359.539C356.845 428.478 354.65 426.284 354.65 423.589V421.989C354.65 419.295 356.845 417.107 359.539 417.107H392.246V414.177H336.251C331.936 414.177 328.432 417.675 328.432 421.996V423.596C328.432 427.911 331.936 431.415 336.251 431.415V431.408Z" fill="#0C8C8C"/>
<path d="M359.525 417.099C356.83 417.099 354.636 419.293 354.636 421.98V423.581C354.636 426.275 356.83 428.469 359.525 428.469H392.232V431.399H358.309C353.995 431.399 350.49 427.902 350.49 423.581V421.98C350.49 417.659 353.995 414.161 358.309 414.161H392.232V417.092H359.525V417.099Z" fill="#01A9B4"/>
<path d="M359.107 428.451C356.609 428.235 354.644 426.135 354.644 423.583V421.983C354.644 419.43 356.609 417.337 359.107 417.121C359.107 417.121 358.337 419.262 358.337 422.867C358.337 426.473 359.107 428.451 359.107 428.451Z" fill="#353C4F"/>
<path d="M328.825 378.634C326.374 378.634 324.382 380.626 324.382 383.077V387.041C324.382 389.492 326.374 391.483 328.825 391.483H398.952C398.952 391.483 397.069 389.134 397.069 385.38C397.069 380.991 398.952 378.648 398.952 378.648H328.825V378.634Z" fill="#DAEAE5"/>
<path d="M352.833 391.477H362.394C362.394 391.477 361.456 389.505 361.456 385.191C361.456 380.876 362.394 378.634 362.394 378.634H352.833V391.477Z" fill="#353C4F"/>
<path d="M362.375 378.092C362.443 378.092 362.517 378.106 362.585 378.133C362.862 378.247 362.997 378.571 362.875 378.848C362.868 378.869 361.977 381.07 361.977 385.195C361.977 389.294 362.855 391.225 362.868 391.245C362.997 391.515 362.882 391.846 362.605 391.974C362.335 392.103 362.011 391.988 361.876 391.718C361.835 391.63 360.883 389.584 360.883 385.202C360.883 380.82 361.828 378.531 361.869 378.436C361.957 378.227 362.159 378.099 362.375 378.099V378.092Z" fill="#8DCCDB"/>
<path d="M336.015 394.142H401.429V391.481H363.03C360.579 391.481 358.587 389.49 358.587 387.039V383.075C358.587 380.624 360.579 378.632 363.03 378.632H401.429V375.972H336.015C332.092 375.972 328.912 379.152 328.912 383.075V387.039C328.912 390.962 332.092 394.142 336.015 394.142Z" fill="#AF6127"/>
<path d="M328.834 394.142H362.621C358.699 394.142 355.518 390.962 355.518 387.039V383.075C355.518 379.152 358.699 375.972 362.621 375.972H328.834C324.911 375.972 321.731 379.152 321.731 383.075V387.039C321.731 390.962 324.911 394.142 328.834 394.142Z" fill="#894229"/>
<path d="M378.806 410.659C381.959 410.659 384.531 408.093 384.531 404.933V403.056C384.531 399.896 381.959 397.33 378.806 397.33H338.064C338.064 397.33 340.488 398.741 340.488 403.589C340.488 409.248 338.064 410.659 338.064 410.659H378.806Z" fill="#E2E0C5"/>
<path d="M393.491 393.894H334.005V397.331H378.785C381.939 397.331 384.511 399.896 384.511 403.056V404.933C384.511 408.087 381.939 410.659 378.785 410.659H334.005V414.096H393.491C398.549 414.096 402.654 409.998 402.654 404.933V403.056C402.654 397.999 398.549 393.894 393.491 393.894Z" fill="#FBC41C"/>
<path d="M378.785 410.659C381.939 410.659 384.511 408.093 384.511 404.933V403.056C384.511 399.896 381.939 397.331 378.785 397.331H334.005V393.894H380.21C385.267 393.894 389.373 397.992 389.373 403.056V404.933C389.373 409.991 385.267 414.096 380.21 414.096H334.005V410.659H378.785Z" fill="#ED9D11"/>
<path d="M379.3 397.354C382.224 397.604 384.533 400.062 384.533 403.053V404.93C384.533 407.915 382.231 410.379 379.3 410.629C379.3 410.629 380.198 408.124 380.198 403.897C380.198 399.67 379.3 397.354 379.3 397.354Z" fill="#353C4F"/>
<path d="M331.692 321.025C329.322 321.025 327.398 322.949 327.398 325.319V329.154C327.398 331.524 329.322 333.449 331.692 333.449H382.495C382.495 333.449 380.678 331.18 380.678 327.541C380.678 323.294 382.495 321.025 382.495 321.025H331.692Z" fill="#E4F4F0"/>
<path d="M339.66 333.448H348.911C348.911 333.448 347.999 331.537 347.999 327.371C347.999 323.205 348.911 321.031 348.911 321.031H339.66V333.454V333.448Z" fill="#353C4F"/>
<path d="M348.927 320.498C348.995 320.498 349.062 320.511 349.13 320.538C349.4 320.653 349.528 320.964 349.414 321.227C349.407 321.247 348.543 323.374 348.543 327.365C348.543 331.335 349.393 333.198 349.4 333.219C349.522 333.482 349.414 333.799 349.15 333.921C348.887 334.042 348.576 333.934 348.448 333.671C348.408 333.59 347.489 331.605 347.489 327.365C347.489 323.124 348.401 320.91 348.441 320.815C348.529 320.613 348.725 320.491 348.927 320.491V320.498Z" fill="#8DCCDB"/>
<path d="M323.415 336.027H383.826V333.447H349.559C347.189 333.447 345.265 331.523 345.265 329.153V325.318C345.265 322.948 347.189 321.023 349.559 321.023H383.826V318.451H323.415C319.621 318.451 316.542 321.523 316.542 325.325V329.16C316.542 332.954 319.621 336.033 323.415 336.033V336.027Z" fill="#01A9B4"/>
<g style="mix-blend-mode:multiply" opacity="0.4">
<path d="M323.415 336.026H349.141C345.346 336.026 342.267 332.947 342.267 329.152V325.317C342.267 321.523 345.346 318.444 349.141 318.444H323.415C319.621 318.444 316.542 321.516 316.542 325.317V329.152C316.542 332.947 319.621 336.026 323.415 336.026Z" fill="#353C4F"/>
</g>
<g style="mix-blend-mode:multiply" opacity="0.2">
<path d="M362.467 315.211C361.049 317.19 358.733 318.479 356.12 318.479H385.391C388.01 318.479 390.32 317.19 391.744 315.211H362.474H362.467Z" fill="#353C4F"/>
</g>
<path d="M398.871 431.406H376.772C379.864 431.406 382.524 433.202 383.801 435.801H405.9C404.624 433.202 401.964 431.406 398.871 431.406Z" fill="#F96921"/>
<path d="M322.587 379.645H356.375C357.584 377.457 359.92 375.972 362.594 375.972H328.806C326.125 375.972 323.796 377.457 322.587 379.645Z" fill="#9E5B2E"/>
<path d="M242.814 370.508C245.508 370.508 247.703 368.314 247.703 365.626V364.026C247.703 361.332 245.508 359.138 242.814 359.138H220.755C220.755 359.138 222.821 360.346 222.821 364.479C222.821 369.306 220.755 370.508 220.755 370.508H242.814Z" fill="#E2E0C5"/>
<path d="M266.091 356.207H217.293V359.138H242.803C245.497 359.138 247.691 361.332 247.691 364.026V365.627C247.691 368.321 245.497 370.508 242.803 370.508H217.293V373.439H266.091C270.405 373.439 273.91 369.941 273.91 365.62V364.02C273.91 359.705 270.405 356.201 266.091 356.201V356.207Z" fill="#FBC41C"/>
<path d="M246.019 369.328C245.161 370.064 244.054 370.516 242.832 370.516H219.753V373.447H266.12C269.098 373.447 271.69 371.779 273.007 369.328H246.012H246.019Z" fill="#ED9D11"/>
<path d="M242.803 370.517C245.497 370.517 247.691 368.322 247.691 365.635V364.035C247.691 361.34 245.497 359.146 242.803 359.146H217.293V356.216H244.018C248.333 356.216 251.837 359.713 251.837 364.035V365.635C251.837 369.956 248.333 373.454 244.018 373.454H217.293V370.523H242.803V370.517Z" fill="#EA8913"/>
<path d="M243.226 359.16C245.724 359.376 247.689 361.476 247.689 364.028V365.628C247.689 368.18 245.724 370.274 243.226 370.49C243.226 370.49 243.995 368.349 243.995 364.744C243.995 361.138 243.226 359.16 243.226 359.16Z" fill="#353C4F"/>
<path d="M259.56 448.21C262.713 448.21 265.285 445.644 265.285 442.484V440.607C265.285 437.447 262.713 434.881 259.56 434.881H211.62C211.62 434.881 214.044 436.293 214.044 441.141C214.044 446.799 211.62 448.21 211.62 448.21H259.56Z" fill="#E2E0C5"/>
<path d="M274.252 431.454H207.562V434.891H259.539C262.692 434.891 265.265 437.456 265.265 440.616V442.494C265.265 445.647 262.692 448.219 259.539 448.219H207.562V451.656H274.252C279.309 451.656 283.415 447.558 283.415 442.494V440.616C283.415 435.559 279.309 431.454 274.252 431.454Z" fill="#18AED6"/>
<g style="mix-blend-mode:multiply" opacity="0.4">
<path d="M259.539 448.211C262.693 448.211 265.265 445.645 265.265 442.485V440.608C265.265 437.448 262.693 434.882 259.539 434.882H207.562V431.446H260.964C266.021 431.446 270.127 435.544 270.127 440.608V442.485C270.127 447.543 266.021 451.648 260.964 451.648H207.562V448.211H259.539Z" fill="#353C4F"/>
</g>
<path d="M260.052 434.91C262.976 435.16 265.285 437.618 265.285 440.609V442.486C265.285 445.47 262.982 447.935 260.052 448.185C260.052 448.185 260.95 445.68 260.95 441.453C260.95 437.226 260.052 434.91 260.052 434.91Z" fill="#353C4F"/>
<path d="M209.515 393.593H283.45V397.023H231.547C228.394 397.023 225.828 399.589 225.828 402.742V404.619C225.828 407.772 228.394 410.331 231.547 410.331H283.45V413.761H209.515C204.464 413.761 200.366 409.663 200.366 404.612V402.735C200.366 397.685 204.464 393.586 209.515 393.586V393.593Z" fill="#894229"/>
<path d="M231.546 410.332C228.392 410.332 225.827 407.767 225.827 404.62V402.743C225.827 399.59 228.392 397.024 231.546 397.024H279.411C279.411 397.024 276.994 398.435 276.994 403.27C276.994 408.921 279.411 410.326 279.411 410.326H231.546V410.332Z" fill="#E4F4F0"/>
<path d="M231.562 410.333C228.409 410.333 225.843 407.767 225.843 404.621V402.744C225.843 399.59 228.409 397.025 231.562 397.025H283.466V393.594H230.144C225.094 393.594 220.995 397.686 220.995 402.744V404.621C220.995 409.671 225.094 413.77 230.144 413.77H283.466V410.34H231.562V410.333Z" fill="#AF6127"/>
<path d="M231.061 397.052C228.144 397.302 225.841 399.76 225.841 402.744V404.622C225.841 407.606 228.144 410.057 231.061 410.314C231.061 410.314 230.163 407.809 230.163 403.589C230.163 399.368 231.061 397.059 231.061 397.059V397.052Z" fill="#353C4F"/>
<path d="M214.046 373.298H278.286V376.275H214.046C211.312 376.275 209.084 378.503 209.084 381.245V385.674C209.084 388.416 211.312 390.644 214.046 390.644H278.286V393.621H214.046C209.658 393.621 206.106 390.063 206.106 385.674V381.245C206.106 376.856 209.664 373.298 214.046 373.298Z" fill="#93B224"/>
<path d="M214.03 390.644C211.295 390.644 210.289 388.416 210.289 385.675V381.245C210.289 378.504 211.295 376.276 214.03 376.276H274.765C274.765 376.276 272.658 378.902 272.658 383.102C272.658 388.004 274.765 390.638 274.765 390.638H214.03V390.644Z" fill="#E4F4F0"/>
<g style="mix-blend-mode:multiply" opacity="0.3">
<path d="M233.832 383.263C233.494 383.263 233.217 382.987 233.217 382.656C233.217 382.325 233.494 382.041 233.832 382.041H247.62C247.957 382.041 248.234 382.318 248.234 382.649C248.234 382.98 247.957 383.257 247.62 383.257H233.832V383.263Z" fill="#353C4F"/>
</g>
<g style="mix-blend-mode:multiply" opacity="0.3">
<path d="M232.716 393.683L235.046 382.656H246.389L244.053 393.683H232.716Z" fill="#0B2025"/>
</g>
<path d="M235.051 400.819L240.722 398.949L246.394 400.819V382.656H235.051V400.819Z" fill="#D3380F"/>
<path d="M246.394 382.656H235.051V393.581H246.394V382.656Z" fill="#F45F14"/>
<path d="M213.383 376.331C213.383 376.331 212.458 378.309 212.458 383.265C212.458 388.221 213.383 390.598 213.383 390.598C210.966 390.267 209.089 388.194 209.089 385.682V381.253C209.089 378.741 210.966 376.668 213.383 376.337V376.331Z" fill="#353C4F"/>
<path d="M213.937 376.587C213.937 376.587 213.066 378.552 213.066 383.265C213.066 387.978 213.943 390.348 213.95 390.375C213.984 390.463 213.997 390.557 213.991 390.645C213.498 390.645 213.066 390.564 212.681 390.422C212.417 389.544 211.843 387.201 211.843 383.272C211.843 379.342 212.377 377.377 212.66 376.526C213.045 376.378 213.491 376.297 213.991 376.29C213.997 376.391 213.991 376.493 213.937 376.594V376.587Z" fill="#AF6127"/>
<path d="M282.539 428.84C284.909 428.84 286.833 426.916 286.833 424.546V420.711C286.833 418.341 284.909 416.416 282.539 416.416H207.259C207.259 416.416 209.076 418.685 209.076 422.324C209.076 426.571 207.259 428.84 207.259 428.84H282.539Z" fill="#E2E0C5"/>
<path d="M266.29 416.416H257.039C257.039 416.416 257.951 418.327 257.951 422.493C257.951 426.659 257.039 428.84 257.039 428.84H266.29V416.416Z" fill="#353C4F"/>
<path d="M257.045 429.365C256.977 429.365 256.91 429.352 256.842 429.325C256.572 429.21 256.444 428.9 256.559 428.636C256.565 428.616 257.43 426.489 257.43 422.499C257.43 418.508 256.579 416.665 256.572 416.645C256.451 416.381 256.559 416.064 256.822 415.942C257.085 415.821 257.396 415.929 257.524 416.192C257.565 416.273 258.483 418.258 258.483 422.499C258.483 426.739 257.571 428.954 257.531 429.048C257.443 429.251 257.247 429.372 257.045 429.372V429.365Z" fill="#9E5B2E"/>
<path d="M275.358 413.836H204.866V416.415H256.411C258.781 416.415 260.706 418.34 260.706 420.71V424.545C260.706 426.915 258.781 428.839 256.411 428.839H204.866V431.412H275.358C279.152 431.412 282.231 428.34 282.231 424.538V420.703C282.231 416.908 279.152 413.829 275.358 413.829V413.836Z" fill="#EA8913"/>
<path d="M282.551 413.833H256.826C260.62 413.833 263.699 416.912 263.699 420.707V424.542C263.699 428.336 260.62 431.415 256.826 431.415H282.551C286.346 431.415 289.425 428.343 289.425 424.542V420.707C289.425 416.912 286.346 413.833 282.551 413.833Z" fill="#FBC41C"/>
<path d="M262.854 427.882C261.679 429.989 259.43 431.414 256.851 431.414H282.576C285.162 431.414 287.411 429.989 288.586 427.882H262.86H262.854Z" fill="#ED9D11"/>
</svg>
